{"glyphs":{"0":{"ha":690,"x_min":0,"x_max":0,"o":"m 366 993 b 203 936 300 993 246 974 b 49 505 100 840 49 696 b 98 197 49 383 65 281 b 353 -16 155 55 241 -16 b 493 28 401 -16 448 -1 b 604 153 538 57 575 99 b 673 488 650 241 673 352 b 624 779 673 589 656 686 b 366 993 570 922 484 993 z "},"1":{"ha":376,"x_min":0,"x_max":0,"o":"m 162 974 b 124 949 144 974 132 966 b 13 697 50 800 13 715 b 64 640 13 659 30 640 l 121 640 l 130 57 b 181 0 130 19 146 0 l 252 0 b 306 57 288 0 306 19 l 319 925 b 268 974 319 958 302 974 l 162 974 z "},"2":{"ha":582,"x_min":0,"x_max":0,"o":"m 75 1 b 481 11 330 7 466 11 b 555 79 530 11 555 33 l 555 106 b 450 178 555 151 519 175 b 254 184 368 182 303 184 b 363 346 277 229 313 283 b 549 735 488 501 549 631 b 492 903 549 804 530 860 b 273 993 438 963 366 993 b 129 960 211 993 163 982 b 9 827 50 909 9 865 b 18 798 9 814 12 804 b 118 711 66 740 100 711 b 180 753 135 711 155 725 b 281 800 207 785 241 800 b 368 719 338 800 368 773 b 256 474 368 644 330 562 b 26 57 102 292 26 153 b 73 1 26 20 41 1 l 75 1 z "},"3":{"ha":581,"x_min":0,"x_max":0,"o":"m 275 -16 b 486 71 349 -16 418 13 b 576 279 546 124 576 194 b 425 537 576 389 526 475 b 511 754 482 597 511 669 b 476 876 511 800 500 840 b 245 993 425 954 348 993 b 113 966 190 993 146 984 b 7 860 42 928 7 892 b 37 806 7 845 17 827 b 137 730 81 755 115 730 b 172 743 155 730 168 734 b 283 846 210 812 248 846 b 340 735 321 846 340 809 b 232 589 340 658 304 609 b 134 524 167 572 134 550 l 134 488 b 161 442 134 460 143 446 b 267 418 203 435 238 427 b 403 271 357 391 403 342 b 368 168 403 226 391 192 b 286 133 344 144 317 133 b 202 179 245 133 217 149 b 134 239 184 219 161 239 b 69 205 121 239 100 227 b 18 136 35 180 18 157 b 47 79 18 123 27 104 b 275 -16 96 16 172 -16 z "},"4":{"ha":606,"x_min":0,"x_max":0,"o":"m 483 0 b 537 113 517 0 535 38 b 547 926 540 241 543 512 b 502 974 547 958 532 974 l 396 974 b 363 960 380 974 370 969 b 145 583 342 930 269 804 b 5 312 52 416 5 326 b 57 258 5 276 22 258 l 358 258 l 358 65 b 412 0 358 22 376 0 z m 225 404 l 358 632 l 358 404 z "},"5":{"ha":585,"x_min":0,"x_max":0,"o":"m 287 -16 b 509 77 368 -16 442 15 b 593 285 565 130 593 200 b 479 507 593 372 555 446 b 246 583 416 558 338 583 l 246 800 l 444 814 b 509 865 488 817 509 835 l 509 914 b 426 962 509 941 481 958 b 111 974 366 967 260 970 b 59 925 76 974 59 958 b 64 494 62 694 64 550 b 127 423 64 447 85 423 b 290 412 193 423 248 420 b 439 271 389 393 439 347 b 393 178 439 232 424 201 b 306 149 370 159 340 149 b 216 184 258 149 229 161 b 151 239 197 220 175 239 b 95 212 141 239 123 230 b 35 141 55 185 35 162 b 131 22 35 98 66 59 b 287 -16 174 -3 227 -16 z "},"6":{"ha":644,"x_min":0,"x_max":0,"o":"m 384 993 b 292 982 340 993 310 989 b 53 450 132 922 53 745 l 53 426 b 88 198 53 344 64 268 b 365 -16 135 55 227 -16 b 548 71 425 -16 486 13 b 636 309 607 131 636 210 b 593 477 636 376 622 432 b 381 594 541 555 470 594 b 224 567 341 594 289 585 b 249 713 224 606 232 654 b 359 838 275 796 312 838 b 425 819 387 838 408 832 b 506 768 469 785 496 768 b 566 815 526 768 545 783 b 598 879 587 850 598 871 b 536 955 598 907 577 932 b 384 993 492 980 441 993 z "},"7":{"ha":542,"x_min":0,"x_max":0,"o":"m 265 0 b 311 27 292 0 307 9 b 539 922 463 621 539 919 b 488 974 539 957 522 974 l 51 974 b 5 928 20 974 5 958 l 5 808 b 59 757 5 774 23 757 b 303 770 64 757 145 762 b 143 52 197 302 143 62 b 195 0 143 17 160 0 l 265 0 z "},"8":{"ha":627,"x_min":0,"x_max":0,"o":"m 319 -16 b 416 -5 362 -16 395 -13 b 598 220 538 35 598 110 b 425 491 598 306 541 396 b 593 757 536 581 593 669 b 533 909 593 811 573 862 b 330 993 485 965 417 993 b 133 924 256 993 191 970 b 39 727 71 874 39 808 b 123 567 39 671 67 618 b 224 488 151 543 184 516 b 47 225 106 383 47 295 b 77 109 47 178 58 139 b 319 -16 135 25 215 -16 z "},"9":{"ha":629,"x_min":0,"x_max":0,"o":"m 275 -16 b 367 -5 318 -16 349 -13 b 606 526 526 54 606 231 l 606 551 b 570 779 606 633 594 709 b 294 993 524 922 431 993 b 111 906 233 993 172 964 b 22 667 52 846 22 766 b 66 499 22 601 37 545 b 277 382 118 421 189 382 b 435 410 317 382 370 391 b 410 264 435 371 427 323 b 299 138 383 180 347 138 b 234 157 272 138 250 144 b 153 209 189 192 162 209 b 93 161 133 209 113 193 b 60 98 71 127 60 105 b 123 22 60 70 81 45 b 275 -16 167 -3 218 -16 z "},"\u0000":{"ha":0,"x_min":0,"x_max":0,"o":""},"\u001d":{"ha":0,"x_min":0,"x_max":0,"o":""}," ":{"ha":209,"x_min":0,"x_max":0,"o":""}," ":{"ha":209,"x_min":0,"x_max":0,"o":""},"!":{"ha":313,"x_min":0,"x_max":0,"o":"m 180 298 b 242 350 221 298 242 315 l 256 928 b 204 974 256 958 239 974 l 98 974 b 52 930 68 974 52 960 l 66 347 b 136 298 66 315 90 298 z m 201 0 b 256 54 237 0 256 18 l 256 144 b 201 198 256 180 237 198 l 106 198 b 55 144 72 198 55 180 l 55 65 b 109 0 55 22 73 0 z "},"\"":{"ha":279,"x_min":0,"x_max":0,"o":"m 52 697 b 105 748 81 697 98 714 b 115 947 112 782 115 848 b 65 993 115 977 98 993 l -30 993 b -77 947 -61 993 -77 977 l -77 798 b -14 697 -76 730 -55 697 z m 292 697 b 346 748 321 697 339 714 b 356 947 353 782 356 848 b 306 993 356 977 339 993 l 211 993 b 164 947 180 993 164 977 l 164 798 b 227 697 165 730 186 697 z "},"#":{"ha":792,"x_min":0,"x_max":0,"o":"m 505 1 b 540 31 522 1 534 11 b 600 260 553 68 572 145 l 645 260 b 767 323 726 260 767 281 l 767 357 b 645 418 767 398 726 418 l 637 418 l 662 528 b 767 591 732 532 767 552 l 767 625 b 696 683 767 656 743 675 b 749 934 731 843 749 926 b 696 974 749 960 731 974 l 617 974 b 579 952 600 974 587 966 b 511 688 576 947 553 859 l 399 688 b 451 934 434 845 451 927 b 398 974 451 960 433 974 l 319 974 b 281 952 302 974 290 966 b 214 690 278 947 256 859 l 125 690 b 29 644 61 690 29 675 l 29 572 b 117 524 29 540 58 524 l 174 525 l 149 422 l 125 422 b 29 376 61 422 29 407 l 29 304 b 109 256 29 274 56 258 b 56 34 74 112 56 38 b 109 1 56 12 74 1 l 208 1 b 242 31 224 1 236 11 b 302 258 255 68 275 144 l 407 258 b 354 34 372 113 354 38 b 406 1 354 12 372 1 z m 340 421 l 363 526 l 472 527 l 446 420 z "},"$":{"ha":637,"x_min":0,"x_max":0,"o":"m 247 986 b 118 917 199 975 156 952 b 31 724 60 866 31 802 b 180 491 31 625 80 547 b 413 247 335 405 413 323 b 342 176 413 200 389 176 b 264 214 307 176 281 189 b 212 290 258 265 240 290 l 87 288 b 22 236 44 288 22 271 b 117 54 22 170 54 109 b 280 -13 161 18 216 -5 l 280 -84 b 337 -144 280 -124 299 -144 b 391 -87 373 -144 391 -125 l 391 -12 b 552 63 452 -3 505 22 b 616 220 595 103 616 155 b 603 317 616 252 612 284 b 361 567 581 393 500 477 b 239 735 280 619 239 675 b 296 808 239 784 258 808 b 357 751 332 808 353 789 b 410 689 361 710 379 689 l 543 689 b 595 741 572 689 589 706 b 584 819 595 764 591 791 b 385 985 539 911 473 966 l 385 1061 b 334 1115 385 1097 368 1115 l 293 1115 b 247 1063 262 1115 247 1098 l 247 986 z "},"%":{"ha":855,"x_min":0,"x_max":0,"o":"m 172 548 b 292 597 216 548 256 564 b 361 779 338 640 361 700 b 308 937 361 848 344 901 b 172 993 271 975 225 993 b 38 933 122 993 78 973 b -21 770 -1 894 -21 840 b -2 673 -21 739 -15 707 b 172 548 30 589 87 548 z m 253 0 b 294 19 273 0 286 6 b 477 448 302 33 363 176 b 673 917 597 739 663 895 b 681 944 678 927 681 937 b 627 974 681 964 663 974 l 577 974 b 547 960 563 974 553 969 b 284 431 538 947 450 770 b 104 54 168 193 108 68 b 101 35 102 47 101 41 b 153 0 101 12 118 0 z m 654 -1 b 828 124 739 -1 796 41 b 847 222 841 158 847 191 b 787 385 847 291 827 345 b 654 444 748 425 704 444 b 518 389 601 444 555 426 b 465 230 482 353 465 300 b 534 48 465 151 488 91 b 654 -1 570 16 610 -1 z "},"&":{"ha":766,"x_min":0,"x_max":0,"o":"m 336 993 b 152 935 269 993 207 974 b 60 762 90 892 60 835 b 174 513 60 680 98 597 b 16 241 68 428 16 338 b 85 76 16 178 39 123 b 293 -16 142 14 211 -16 b 551 41 379 -16 465 3 l 551 30 b 597 -16 551 -1 566 -16 l 675 -16 b 727 35 710 -16 727 1 b 708 179 727 85 721 134 b 760 358 743 239 760 298 b 708 412 760 394 743 412 l 624 412 b 586 388 611 412 598 404 b 450 513 529 446 484 487 b 586 751 541 602 586 681 b 519 926 586 821 564 879 b 336 993 475 970 414 993 z "},"'":{"ha":260,"x_min":0,"x_max":0,"o":"m 162 697 b 216 748 191 697 209 714 b 226 947 222 782 226 848 b 176 993 226 977 209 993 l 81 993 b 34 947 50 993 34 977 l 34 798 b 97 697 35 730 56 697 l 162 697 z "},"(":{"ha":340,"x_min":0,"x_max":0,"o":"m 307 -144 b 354 -97 338 -144 354 -128 b 330 -24 354 -87 346 -62 b 236 480 267 137 236 304 b 319 949 236 664 264 820 b 357 1068 345 1008 357 1047 b 298 1115 357 1099 338 1115 b 226 1088 277 1115 252 1106 b 46 450 106 1008 46 795 b 58 307 46 418 50 370 b 307 -144 98 6 181 -144 z "},")":{"ha":342,"x_min":0,"x_max":0,"o":"m 37 -144 b 286 307 163 -144 245 6 b 298 450 294 370 298 418 b 118 1088 298 795 238 1008 b 45 1115 92 1106 67 1115 b -14 1068 6 1115 -14 1099 b 24 949 -14 1047 -1 1008 b 108 480 80 820 108 664 b 14 -24 108 304 77 137 b -10 -97 -2 -62 -10 -87 b 37 -144 -10 -128 5 -144 z "},"*":{"ha":121,"x_min":0,"x_max":0,"o":"m 75 697 b 105 738 95 697 105 711 b 134 724 113 728 122 724 b 168 743 141 724 152 730 b 186 776 180 752 186 763 b 170 803 186 783 181 792 b 211 833 197 803 211 813 l 211 868 b 170 895 211 886 197 895 b 191 923 184 905 191 914 b 178 943 191 927 186 934 b 133 977 159 966 144 977 b 105 960 126 977 117 971 b 78 1001 105 987 96 1001 l 40 1001 b 13 960 22 1001 13 987 b -14 977 2 971 -7 977 b -37 967 -22 977 -29 973 b -68 926 -58 950 -68 937 b -52 895 -68 913 -60 904 b -90 871 -77 895 -90 887 b -87 825 -90 860 -89 845 b -52 803 -85 810 -74 803 b -68 777 -63 797 -68 788 b -61 755 -68 768 -66 761 b -17 722 -43 732 -28 722 b 13 738 -9 722 1 727 b 43 697 13 711 23 697 l 75 697 z "},"+":{"ha":456,"x_min":0,"x_max":0,"o":"m 245 252 b 321 309 296 252 321 271 l 321 385 l 387 385 b 449 434 428 385 449 401 l 449 515 b 381 564 449 548 427 564 l 319 564 l 319 643 b 262 697 319 679 300 697 l 194 697 b 140 643 158 697 140 679 l 140 570 l 58 570 b 7 518 24 570 7 553 l 7 439 b 64 382 7 401 26 382 l 134 382 l 134 293 b 205 252 134 266 158 252 l 245 252 z "},",":{"ha":201,"x_min":0,"x_max":0,"o":"m 111 -119 b 156 -89 131 -119 146 -109 b 200 49 185 -28 200 18 l 200 146 b 146 198 200 181 182 198 l 56 198 b 2 146 20 198 2 181 l 2 49 b 37 5 2 31 14 17 b 24 -68 28 -28 24 -53 b 75 -119 24 -102 41 -119 l 111 -119 z "},"-":{"ha":296,"x_min":0,"x_max":0,"o":"m 35 203 b 212 206 90 203 149 204 b 296 260 268 208 296 226 l 296 334 b 272 379 296 362 288 377 b 41 393 193 389 115 393 b -4 339 11 393 -4 375 l -4 256 b 35 203 -4 221 9 203 z "},"­":{"ha":296,"x_min":0,"x_max":0,"o":"m 35 203 b 212 206 90 203 149 204 b 296 260 268 208 296 226 l 296 334 b 272 379 296 362 288 377 b 41 393 193 389 115 393 b -4 339 11 393 -4 375 l -4 256 b 35 203 -4 221 9 203 z "},".":{"ha":203,"x_min":0,"x_max":0,"o":"m 56 198 b 5 136 22 198 5 177 l 5 62 b 56 0 5 21 22 0 l 149 0 b 200 62 183 0 200 21 l 200 136 b 149 198 200 177 183 198 l 56 198 z "},"/":{"ha":374,"x_min":0,"x_max":0,"o":"m 155 1 b 189 31 172 1 183 11 b 393 901 218 118 286 408 b 398 934 396 918 398 929 b 345 974 398 960 380 974 l 267 974 b 229 952 250 974 237 966 b 5 48 222 942 149 641 b 3 34 4 43 3 39 b 56 1 3 12 21 1 l 155 1 z "},":":{"ha":265,"x_min":0,"x_max":0,"o":"m 89 198 b 37 136 54 198 37 177 l 37 62 b 89 0 37 21 54 0 l 181 0 b 233 62 216 0 233 21 l 233 136 b 181 198 233 177 216 198 z m 89 623 b 37 560 54 623 37 602 l 37 487 b 89 425 37 446 54 425 l 181 425 b 233 487 216 425 233 446 l 233 560 b 181 623 233 602 216 623 z "},";":{"ha":271,"x_min":0,"x_max":0,"o":"m 91 623 b 39 560 56 623 39 602 l 39 487 b 91 425 39 446 56 425 l 183 425 b 235 487 218 425 235 446 l 235 560 b 183 623 235 602 218 623 z m 145 -119 b 191 -89 165 -119 180 -109 b 235 49 220 -28 235 18 l 235 146 b 180 198 235 181 216 198 l 91 198 b 37 146 55 198 37 181 l 37 49 b 72 5 37 31 48 17 b 58 -68 63 -28 58 -53 b 110 -119 58 -102 75 -119 z "},";":{"ha":271,"x_min":0,"x_max":0,"o":"m 91 623 b 39 560 56 623 39 602 l 39 487 b 91 425 39 446 56 425 l 183 425 b 235 487 218 425 235 446 l 235 560 b 183 623 235 602 218 623 z m 145 -119 b 191 -89 165 -119 180 -109 b 235 49 220 -28 235 18 l 235 146 b 180 198 235 181 216 198 l 91 198 b 37 146 55 198 37 181 l 37 49 b 72 5 37 31 48 17 b 58 -68 63 -28 58 -53 b 110 -119 58 -102 75 -119 z "},"<":{"ha":444,"x_min":0,"x_max":0,"o":"m 362 654 b 47 464 342 654 237 591 b -31 382 -5 430 -31 403 b 44 307 -31 365 -6 340 b 183 217 81 281 127 252 b 363 114 288 149 349 114 b 414 195 397 114 414 141 l 414 228 b 382 298 414 260 404 284 b 243 382 354 319 307 347 l 362 458 b 414 522 397 479 414 501 l 414 602 b 362 654 414 637 397 654 z "},"=":{"ha":429,"x_min":0,"x_max":0,"o":"m 342 507 b 404 578 383 507 404 531 l 404 616 b 342 686 404 663 383 686 l 76 690 b 27 637 43 690 27 673 l 27 556 b 72 503 27 520 42 503 z m 342 204 b 404 275 383 204 404 228 l 404 313 b 342 382 404 359 383 382 l 76 387 b 27 334 43 387 27 370 l 27 253 b 72 199 27 217 42 199 z "},">":{"ha":456,"x_min":0,"x_max":0,"o":"m 81 654 b 29 602 46 654 29 637 l 29 522 b 81 458 29 501 46 479 l 200 382 b 60 298 136 347 89 319 b 29 228 39 284 29 260 l 29 195 b 79 114 29 141 46 114 b 260 217 94 114 155 149 b 399 307 316 252 362 281 b 474 382 449 340 474 365 b 395 464 474 403 448 430 b 81 654 205 591 100 654 z "},"?":{"ha":454,"x_min":0,"x_max":0,"o":"m 233 298 b 290 338 268 298 287 311 b 359 500 298 394 321 448 b 480 754 440 610 480 694 b 456 858 480 795 472 830 b 213 993 406 948 324 993 b 43 963 136 993 79 983 b -62 852 -27 923 -62 886 b -20 778 -62 833 -48 808 b 65 711 22 733 50 711 b 90 719 76 711 84 713 b 228 800 142 773 188 800 b 274 757 258 800 274 786 b 252 692 274 734 267 713 b 114 353 160 565 114 452 b 119 334 114 349 116 342 b 184 298 128 310 150 298 z m 154 198 b 102 136 119 198 102 177 l 102 62 b 154 0 102 21 119 0 l 246 0 b 298 62 281 0 298 21 l 298 136 b 246 198 298 177 281 198 z "},"@":{"ha":1077,"x_min":0,"x_max":0,"o":"m 451 -186 b 578 -134 536 -186 578 -169 l 578 -91 b 541 -50 578 -64 566 -50 b 505 -56 537 -50 526 -52 b 462 -61 484 -59 469 -61 b 294 -10 401 -61 345 -44 b 158 308 203 50 158 157 b 297 607 158 427 204 526 b 557 704 370 671 456 704 b 686 680 607 704 650 696 b 915 302 839 614 915 488 b 874 121 915 231 901 171 b 772 48 848 73 813 48 b 744 90 753 48 744 62 b 762 288 744 110 750 176 b 781 483 775 401 781 466 b 772 507 781 494 779 502 b 582 576 716 553 652 576 b 425 534 517 576 465 562 b 284 279 331 469 284 384 b 351 104 284 210 307 152 b 506 42 390 63 441 42 b 580 58 528 42 553 47 b 768 -71 612 -28 675 -71 b 965 29 844 -71 910 -37 b 1048 297 1020 96 1048 185 b 914 672 1048 450 1003 574 b 570 829 819 777 705 829 b 321 779 467 829 384 812 b 25 297 123 675 25 515 b 84 52 25 201 45 119 b 451 -186 177 -106 299 -186 z "},"A":{"ha":668,"x_min":0,"x_max":0,"o":"m 620 -14 b 669 41 652 -14 669 5 b 452 903 669 56 597 343 b 408 960 443 941 428 960 l 267 960 b 216 898 243 960 226 939 b 7 38 77 334 7 47 b 56 -14 7 3 23 -14 l 118 -14 b 165 24 138 -14 154 -1 b 202 163 178 52 190 98 l 433 163 b 460 45 445 102 454 63 b 517 -14 473 6 492 -14 l 620 -14 z "},"B":{"ha":712,"x_min":0,"x_max":0,"o":"m 389 -16 b 599 66 465 -16 534 12 b 692 271 661 121 692 189 b 665 407 692 325 684 370 b 530 540 637 466 593 511 b 627 743 595 596 627 664 b 572 890 627 800 609 849 b 389 966 526 941 465 966 b 250 933 336 966 290 955 b 201 974 241 960 225 974 l 128 974 b 77 930 94 974 77 960 l 63 49 b 117 0 63 16 81 0 l 207 0 b 245 11 222 0 235 3 b 389 -16 288 -7 336 -16 z "},"C":{"ha":691,"x_min":0,"x_max":0,"o":"m 356 -27 b 606 87 461 -27 544 11 b 665 217 646 139 665 182 b 612 279 665 258 648 279 l 467 279 b 418 244 437 279 421 268 b 367 155 412 184 395 155 b 291 217 340 155 315 176 b 245 429 260 272 245 342 b 271 640 245 507 254 578 b 334 719 288 692 309 719 b 386 662 367 719 384 700 b 459 586 389 611 414 586 l 611 586 b 663 632 646 586 663 602 b 641 768 663 690 655 734 b 356 979 579 909 484 979 b 177 901 285 979 225 953 b 31 456 79 790 31 642 b 55 241 31 374 39 302 b 356 -27 106 62 206 -27 z "},"D":{"ha":678,"x_min":0,"x_max":0,"o":"m 215 0 b 256 22 232 0 245 7 b 351 8 283 13 315 8 b 475 49 399 8 441 22 b 646 488 589 137 646 283 b 547 823 646 608 613 720 b 315 966 485 918 408 966 b 245 947 300 966 277 960 b 207 974 235 965 222 974 l 128 974 b 77 914 94 974 77 954 l 66 52 b 117 0 66 17 83 0 l 215 0 z "},"E":{"ha":539,"x_min":0,"x_max":0,"o":"m 496 -7 b 523 13 514 -7 523 0 l 523 94 b 499 113 523 105 515 111 b 279 123 465 118 391 121 l 277 365 b 437 351 368 355 421 351 b 458 381 452 351 458 361 l 458 549 b 411 581 458 570 443 581 b 274 568 397 581 352 576 l 269 807 l 467 817 b 540 848 515 819 540 829 l 540 907 b 486 940 540 926 522 937 b 121 951 414 946 292 949 b 78 910 93 951 79 938 b 65 64 69 414 65 132 b 122 -7 65 17 84 -7 l 496 -7 z "},"F":{"ha":496,"x_min":0,"x_max":0,"o":"m 241 0 b 293 46 276 0 293 16 b 274 461 293 84 287 222 b 418 448 359 452 407 448 b 442 467 434 448 442 454 l 442 659 b 420 678 442 672 435 678 b 266 665 412 678 360 673 l 258 827 l 477 838 b 524 871 508 839 524 850 l 524 930 b 490 959 524 947 512 957 b 127 974 438 965 317 970 b 76 922 93 974 76 957 l 62 49 b 117 0 62 16 81 0 l 241 0 z "},"G":{"ha":706,"x_min":0,"x_max":0,"o":"m 574 -103 b 615 -61 599 -103 613 -89 b 656 451 643 264 656 435 b 639 469 656 463 650 469 l 378 472 b 349 429 359 472 349 458 l 349 369 b 376 326 349 340 357 326 b 441 328 401 326 422 326 l 457 159 b 384 106 457 123 433 106 b 264 199 337 106 297 137 b 221 420 235 253 221 327 b 256 625 221 500 233 569 b 346 719 281 688 311 719 b 389 646 375 719 389 694 b 460 586 389 606 413 586 l 612 586 b 663 654 646 586 663 608 b 643 759 663 691 656 726 b 357 979 583 906 488 979 b 118 817 262 979 182 925 b 31 449 60 721 31 598 b 73 187 31 349 45 262 b 349 -27 125 44 218 -27 b 481 3 397 -27 441 -17 b 530 -103 487 -68 503 -103 l 574 -103 z "},"H":{"ha":713,"x_min":0,"x_max":0,"o":"m 572 0 b 623 38 604 0 621 13 l 665 932 b 615 974 665 960 648 974 l 458 974 b 410 932 426 974 410 960 l 422 578 l 260 583 l 255 930 b 203 974 254 960 237 974 l 130 974 b 77 928 95 974 78 958 l 65 47 b 119 0 65 16 83 0 l 216 0 b 267 47 250 0 267 16 l 262 439 l 431 445 l 446 92 b 501 0 448 31 467 0 l 572 0 z "},"I":{"ha":356,"x_min":0,"x_max":0,"o":"m 253 -14 b 307 36 289 -14 307 3 l 267 895 b 215 960 264 939 247 960 l 136 960 b 92 904 109 960 94 941 l 50 33 b 101 -14 50 2 66 -14 l 253 -14 z "},"J":{"ha":537,"x_min":0,"x_max":0,"o":"m 228 -5 b 423 123 313 -5 378 37 b 462 270 444 163 457 212 b 490 914 470 377 479 592 l 490 917 b 437 966 490 949 472 966 l 328 966 b 176 947 293 966 242 960 b 54 890 95 930 54 911 l 54 830 b 120 793 54 809 76 797 b 277 789 156 791 208 789 l 286 271 b 237 174 286 206 270 174 b 190 198 217 174 201 182 b 109 269 158 245 131 269 b 73 255 92 269 80 264 b 0 127 24 189 0 146 b 32 77 0 113 11 96 b 228 -5 92 22 158 -5 z "},"K":{"ha":688,"x_min":0,"x_max":0,"o":"m 654 -14 b 708 35 690 -14 708 3 b 655 135 708 44 690 77 b 396 526 607 209 521 339 b 665 933 575 787 665 923 b 640 960 665 951 656 960 l 518 960 b 498 944 512 960 505 955 b 260 564 462 892 383 766 b 255 906 257 734 255 848 b 203 960 255 942 238 960 l 130 960 b 79 917 96 960 79 946 b 65 35 70 390 65 96 b 125 -14 65 3 85 -14 l 214 -14 b 269 33 250 -14 269 2 l 263 334 l 282 355 b 401 68 349 189 389 93 b 477 -14 429 14 455 -14 l 654 -14 z "},"L":{"ha":446,"x_min":0,"x_max":0,"o":"m 167 0 b 388 11 218 0 292 3 b 454 41 432 14 454 24 l 454 103 b 405 136 454 122 438 133 b 259 146 374 139 326 143 b 319 928 299 635 319 896 b 270 974 319 958 302 974 l 113 974 b 61 920 78 974 61 956 l 75 71 b 129 0 75 24 93 0 l 167 0 z "},"M":{"ha":1023,"x_min":0,"x_max":0,"o":"m 933 -14 b 955 22 947 -14 955 -2 b 958 654 957 269 958 479 b 933 792 958 699 949 745 b 757 930 901 884 843 930 b 567 760 682 930 618 873 b 385 930 532 873 471 930 b 252 836 331 930 287 899 l 250 898 b 198 960 248 939 230 960 l 119 960 b 79 933 92 960 79 951 l 60 35 b 111 -14 60 3 77 -14 l 209 -14 b 263 35 245 -14 263 3 l 255 559 b 334 662 279 627 306 662 b 407 490 375 662 399 605 b 420 33 413 395 418 242 l 420 22 b 442 -14 420 -2 428 -14 l 559 -14 b 578 30 572 -14 578 1 b 581 456 578 161 578 303 b 677 559 607 524 640 559 b 798 304 758 559 798 474 l 798 30 b 827 -14 798 1 808 -14 l 933 -14 z "},"N":{"ha":701,"x_min":0,"x_max":0,"o":"m 608 0 b 628 55 621 0 628 18 b 635 651 630 159 632 357 b 597 842 635 726 623 789 b 435 944 562 910 508 944 b 258 811 369 944 310 900 l 253 895 b 201 974 250 947 232 974 l 128 974 b 77 930 94 974 77 960 l 63 43 b 123 0 63 14 83 0 l 239 0 b 294 44 275 0 294 15 l 269 553 b 361 651 294 618 326 651 b 462 427 421 651 454 576 b 473 33 467 336 471 204 b 500 0 473 11 481 0 l 608 0 z "},"O":{"ha":846,"x_min":0,"x_max":0,"o":"m 395 -15 b 619 39 496 -15 571 3 b 817 498 751 141 817 294 b 805 614 817 543 812 582 b 414 991 747 865 616 991 b 124 833 305 991 209 939 b 24 485 57 748 24 632 b 119 142 24 356 56 241 b 395 -15 189 37 280 -15 z "},"P":{"ha":689,"x_min":0,"x_max":0,"o":"m 198 0 b 252 60 234 0 252 20 b 255 396 254 237 255 349 b 377 372 296 380 336 372 b 595 456 460 372 532 400 b 692 673 660 513 692 585 b 595 896 692 763 660 838 b 396 963 545 941 478 963 b 247 941 348 963 298 956 b 222 958 238 952 230 958 l 114 958 b 60 906 78 958 60 941 b 73 79 68 448 73 172 b 130 0 73 26 92 0 l 198 0 z "},"Q":{"ha":744,"x_min":0,"x_max":0,"o":"m 538 83 b 707 495 650 175 707 313 b 696 600 707 535 703 570 b 358 939 646 825 533 939 b 107 797 264 939 180 891 b 20 483 50 720 20 615 b 102 174 20 367 47 264 b 341 33 163 79 242 33 b 380 34 355 33 368 33 b 443 -73 389 18 410 -18 b 527 -193 490 -153 517 -193 b 569 -163 531 -193 545 -183 b 663 -68 631 -115 663 -83 b 538 83 663 -60 621 -9 z "},"R":{"ha":708,"x_min":0,"x_max":0,"o":"m 612 -27 b 664 16 647 -27 664 -13 b 640 93 664 32 656 58 b 512 372 616 149 573 241 b 691 656 631 435 691 530 b 585 878 691 745 656 819 b 398 936 536 917 474 936 b 249 914 349 936 298 928 b 205 930 238 925 224 930 l 113 930 b 62 882 79 930 62 914 l 73 57 b 135 -27 73 1 94 -27 l 197 -27 b 252 33 233 -27 252 -7 b 257 369 252 114 254 226 l 333 347 l 447 76 b 524 -27 475 7 501 -27 l 612 -27 z "},"S":{"ha":644,"x_min":0,"x_max":0,"o":"m 344 -16 b 559 63 427 -16 499 10 b 623 220 602 103 623 155 b 610 317 623 252 618 284 b 368 567 587 393 507 477 b 246 735 287 619 246 675 b 303 808 246 784 265 808 b 364 751 339 808 359 789 b 417 689 368 710 386 689 l 550 689 b 602 741 579 689 596 706 b 591 819 602 764 598 791 b 319 993 534 935 444 993 b 125 917 244 993 179 968 b 37 724 66 866 37 802 b 186 491 37 625 87 547 b 420 247 342 405 420 323 b 349 176 420 200 396 176 b 271 214 314 176 288 189 b 219 290 264 265 247 290 l 94 288 b 29 236 51 288 29 271 b 123 54 29 170 60 109 b 344 -16 180 7 254 -16 z "},"T":{"ha":559,"x_min":0,"x_max":0,"o":"m 374 -14 b 426 27 409 -14 426 0 b 407 745 426 82 420 321 b 526 750 432 745 472 747 b 597 799 573 754 597 770 l 597 887 b 570 928 597 913 588 927 b 323 945 550 929 468 935 b 68 960 179 955 94 960 b 19 901 35 960 19 941 l 19 777 b 73 723 19 741 37 723 b 222 734 97 723 147 726 l 222 65 b 277 -14 222 13 241 -14 l 374 -14 z "},"U":{"ha":709,"x_min":0,"x_max":0,"o":"m 570 0 b 625 46 606 0 625 16 l 638 928 b 592 974 638 958 623 974 l 459 974 b 408 925 425 974 408 958 l 432 420 b 342 323 405 355 375 323 b 247 449 291 323 259 365 b 226 922 237 531 229 688 b 207 947 226 939 220 947 l 90 947 b 71 930 77 947 71 941 b 60 300 64 532 60 322 b 267 30 60 120 129 30 b 440 165 334 30 392 75 l 443 165 l 448 79 b 503 0 450 26 469 0 l 570 0 z "},"V":{"ha":723,"x_min":0,"x_max":0,"o":"m 425 -14 b 482 16 457 -14 476 -3 b 756 903 665 581 756 876 b 691 960 756 941 734 960 l 652 960 b 589 933 616 960 595 951 b 417 366 581 907 523 718 l 276 925 b 200 963 266 950 241 963 l 73 963 b 2 909 26 963 2 945 b 303 38 2 898 102 608 b 360 -14 315 3 334 -14 l 425 -14 z "},"W":{"ha":925,"x_min":0,"x_max":0,"o":"m 673 0 b 741 78 705 0 727 26 b 949 920 770 190 840 471 b 951 936 951 926 951 931 b 898 974 951 961 934 974 l 787 974 b 749 949 770 974 757 966 b 570 363 741 935 682 740 b 458 532 526 475 489 532 b 391 461 434 532 412 508 b 347 363 379 436 365 404 b 274 879 304 678 279 850 b 209 974 262 942 240 974 l 60 974 b 8 928 25 974 8 958 b 25 848 8 913 14 886 b 239 95 57 730 128 479 b 307 0 256 32 279 0 l 372 0 b 427 32 401 0 419 11 b 458 182 435 57 446 106 l 461 182 l 480 71 b 540 0 489 24 509 0 l 673 0 z "},"X":{"ha":709,"x_min":0,"x_max":0,"o":"m 642 -14 b 696 35 677 -14 696 3 b 495 496 696 50 629 204 b 696 848 602 677 669 795 b 723 920 714 880 723 904 b 671 960 723 947 706 960 l 552 960 b 519 944 536 960 526 955 l 392 719 l 321 876 b 254 960 296 932 273 960 l 56 960 b 9 926 24 960 9 949 b 30 850 9 902 16 877 b 254 467 65 785 140 657 b 31 43 105 197 31 56 b 85 -14 31 5 50 -14 l 167 -14 b 219 26 185 -14 203 -1 b 362 271 244 66 292 147 l 473 87 b 560 -14 514 20 543 -14 l 642 -14 z "},"Y":{"ha":684,"x_min":0,"x_max":0,"o":"m 371 -16 b 470 11 399 -16 433 -7 b 612 323 565 56 612 161 b 625 928 612 351 616 553 b 579 974 625 958 610 974 l 446 974 b 395 925 412 974 395 958 l 419 594 b 330 528 392 550 362 528 b 235 614 278 528 247 556 b 212 922 221 682 214 785 b 193 947 212 939 205 947 l 76 947 b 57 930 63 947 57 941 b 51 745 56 895 54 833 b 47 552 48 656 47 592 b 233 326 47 401 109 326 b 427 419 314 326 378 357 b 429 357 428 397 429 376 b 368 160 429 226 408 160 b 310 185 351 160 331 168 b 227 233 269 217 241 233 b 188 214 211 233 198 227 b 135 119 153 167 135 135 b 182 52 135 100 151 77 b 371 -16 237 7 300 -16 z "},"Z":{"ha":626,"x_min":0,"x_max":0,"o":"m 70 0 b 574 3 154 0 322 1 b 602 38 593 3 602 14 l 602 144 b 580 179 602 168 594 179 b 281 127 572 179 472 162 l 490 613 b 618 922 575 805 618 908 b 569 974 618 957 602 974 l 54 974 b 35 955 41 974 35 968 l 35 833 b 64 811 35 819 45 811 b 314 833 81 811 164 819 l 89 244 b 21 49 43 130 21 64 b 70 0 21 16 37 0 z "},"[":{"ha":366,"x_min":0,"x_max":0,"o":"m 85 1115 b 34 1069 51 1115 34 1099 l 47 -90 b 102 -144 47 -125 66 -144 l 278 -144 b 332 -90 314 -144 332 -125 l 332 -35 b 267 16 332 -1 311 16 l 227 16 l 237 958 l 264 958 b 316 1012 299 958 316 976 l 316 1061 b 264 1115 316 1097 299 1115 l 85 1115 z "},"\\":{"ha":463,"x_min":0,"x_max":0,"o":"m 376 1 b 429 34 411 1 429 12 b 427 48 429 39 428 43 b 203 952 283 641 210 942 b 165 974 195 966 182 974 l 87 974 b 34 934 52 974 34 960 b 39 901 34 929 36 918 b 243 31 146 408 214 118 b 277 1 249 11 260 1 z "},"]":{"ha":366,"x_min":0,"x_max":0,"o":"m 102 1115 b 50 1061 67 1115 50 1097 l 50 1012 b 102 958 50 976 67 958 l 129 958 l 140 16 l 99 16 b 34 -35 56 16 34 -1 l 34 -90 b 88 -144 34 -125 52 -144 l 264 -144 b 319 -90 300 -144 319 -125 l 332 1069 b 281 1115 332 1099 315 1115 z "},"^":{"ha":486,"x_min":0,"x_max":0,"o":"m 384 624 b 452 675 429 624 452 641 b 406 772 452 693 437 725 b 333 892 389 798 365 838 b 248 974 302 947 273 974 l 235 974 b 155 894 215 974 189 947 b 72 760 122 840 94 796 b 34 665 47 720 34 688 b 104 624 34 637 58 624 l 137 624 b 202 643 173 624 195 630 l 245 713 l 270 665 b 349 624 283 637 309 624 l 384 624 z "},"_":{"ha":445,"x_min":0,"x_max":0,"o":"m 351 41 b 80 46 317 41 227 43 b 34 -24 50 46 34 22 l 34 -81 b 85 -144 34 -123 51 -144 b 199 -141 102 -144 140 -143 b 338 -138 259 -139 305 -138 b 411 -76 387 -138 411 -117 l 411 -14 b 351 41 411 22 391 41 z "},"`":{"ha":263,"x_min":0,"x_max":0,"o":"m 69 810 b 34 780 45 810 34 800 b 111 661 34 770 60 730 b 138 644 119 650 127 644 l 202 644 b 229 671 220 644 229 653 b 148 799 229 680 202 723 b 121 810 142 806 134 810 z "},"a":{"ha":594,"x_min":0,"x_max":0,"o":"m 488 3 b 540 49 523 3 540 18 b 531 548 534 322 531 489 b 468 605 531 586 510 605 l 423 605 b 361 583 393 605 372 597 b 271 602 323 596 293 602 b 98 505 205 602 147 570 b 24 279 49 439 24 364 b 77 91 24 206 42 143 b 217 11 111 37 157 11 b 336 68 261 11 301 30 b 391 3 340 24 358 3 l 488 3 z "},"b":{"ha":615,"x_min":0,"x_max":0,"o":"m 214 -14 b 258 14 233 -14 248 -5 b 358 -3 288 3 322 -3 b 519 96 414 -3 468 30 b 589 312 566 157 589 229 b 547 495 589 386 574 447 b 388 589 512 557 459 589 b 260 505 340 589 297 561 b 255 871 257 648 255 770 b 206 960 255 930 239 960 l 127 960 b 76 898 93 960 76 939 b 65 38 68 355 65 68 b 117 -14 65 3 82 -14 l 214 -14 z "},"c":{"ha":569,"x_min":0,"x_max":0,"o":"m 281 -3 b 479 87 374 -3 439 27 b 542 244 521 149 542 201 b 504 296 542 272 529 289 b 393 307 480 302 444 306 b 347 269 362 307 347 294 b 281 163 347 198 325 163 b 203 300 229 163 203 208 b 287 458 203 406 231 458 b 321 405 309 458 321 441 b 363 382 321 390 335 382 l 479 382 b 534 437 515 382 534 401 b 468 581 534 490 512 538 b 300 643 422 623 367 643 b 100 528 224 643 157 604 b 26 293 51 460 26 382 b 43 182 27 260 33 223 b 281 -3 74 59 153 -3 z "},"d":{"ha":615,"x_min":0,"x_max":0,"o":"m 497 -14 b 551 33 533 -14 551 2 b 538 906 543 576 538 867 b 486 960 538 942 521 960 l 413 960 b 361 917 378 960 361 946 b 356 570 358 730 356 614 b 275 589 324 583 297 589 b 114 511 215 589 161 563 b 25 258 55 446 25 361 b 84 66 25 184 45 119 b 234 -3 118 20 168 -3 b 348 71 273 -3 311 22 l 348 35 b 408 -14 348 3 368 -14 l 497 -14 z "},"e":{"ha":556,"x_min":0,"x_max":0,"o":"m 277 0 b 478 66 361 0 428 22 b 556 214 530 111 556 161 b 483 266 556 249 532 266 l 418 266 b 358 220 378 266 358 250 b 296 174 358 189 337 174 b 233 203 269 174 249 184 b 269 217 237 203 249 208 b 488 453 415 286 488 364 b 420 576 488 501 466 543 b 274 616 384 603 335 616 b 103 527 210 616 153 586 b 24 290 51 465 24 386 b 86 96 24 216 45 151 b 277 0 133 32 196 0 z "},"f":{"ha":385,"x_min":0,"x_max":0,"o":"m 234 -14 b 288 33 270 -14 288 2 l 277 439 l 340 439 b 359 467 353 439 359 448 l 359 559 b 329 589 359 578 349 589 b 277 586 319 589 302 588 b 317 777 277 713 291 777 b 332 763 327 777 332 772 b 374 730 332 741 346 730 l 473 730 b 524 776 507 730 524 745 b 460 920 524 829 503 877 b 296 974 422 956 368 974 b 172 911 254 974 212 953 b 96 575 121 858 96 746 l 44 575 b 1 532 15 575 1 561 l 1 483 b 60 450 1 461 20 450 l 87 450 b 85 41 85 253 85 117 b 139 -14 85 5 103 -14 l 234 -14 z "},"g":{"ha":616,"x_min":0,"x_max":0,"o":"m 307 -296 b 406 -269 336 -296 369 -287 b 549 43 501 -223 549 -119 l 549 583 b 484 632 549 616 527 632 l 410 632 b 351 600 381 632 361 621 b 275 616 323 610 298 616 b 92 509 197 616 136 581 b 25 293 47 439 25 367 b 41 182 25 252 31 215 b 223 24 75 77 136 24 b 356 109 272 24 316 52 b 359 16 358 63 359 33 b 304 -119 359 -74 340 -119 b 246 -94 287 -119 267 -111 b 163 -46 205 -62 178 -46 b 124 -66 147 -46 134 -53 b 71 -160 89 -113 71 -144 b 118 -227 71 -180 87 -202 b 307 -296 173 -273 236 -296 z "},"h":{"ha":631,"x_min":0,"x_max":0,"o":"m 214 0 b 265 52 248 0 265 17 b 262 244 265 144 264 208 b 336 334 288 304 313 334 b 382 296 351 334 366 321 b 425 98 411 249 425 183 b 455 41 425 60 435 41 l 553 41 b 588 76 576 41 588 52 l 588 266 b 385 602 588 490 520 602 b 260 518 338 602 297 574 l 252 920 b 205 974 252 956 236 974 l 127 974 b 75 917 92 974 75 955 b 62 54 72 588 67 300 b 116 0 62 18 80 0 l 214 0 z "},"i":{"ha":308,"x_min":0,"x_max":0,"o":"m 202 3 l 104 3 b 52 41 69 3 52 16 l 64 410 b 134 459 65 443 89 459 l 178 459 b 244 393 221 459 243 437 l 253 34 b 202 3 253 13 236 3 z m 161 501 b 259 621 227 535 259 575 b 218 673 259 656 245 673 b 156 651 197 673 177 666 b 104 703 153 686 136 703 b 56 640 72 703 56 682 b 161 501 56 575 91 529 z "},"j":{"ha":331,"x_min":0,"x_max":0,"o":"m 131 618 l 204 618 b 269 567 248 618 269 602 b 248 -47 266 254 258 49 b 177 -235 241 -124 217 -186 b 31 -309 135 -284 86 -309 b -121 -270 -25 -309 -75 -296 b -208 -171 -179 -233 -208 -200 b -180 -106 -208 -158 -199 -136 b -116 -60 -161 -75 -140 -60 b -26 -114 -96 -60 -66 -78 b 28 -133 -12 -127 5 -133 b 79 -8 62 -133 79 -92 l 66 570 b 131 618 66 602 87 618 z m 160 664 b 247 779 218 686 247 725 b 208 829 247 812 234 829 b 164 787 181 829 167 815 b 113 806 147 800 130 806 b 79 763 90 806 79 792 b 160 664 79 725 106 692 z "},"k":{"ha":625,"x_min":0,"x_max":0,"o":"m 601 -20 b 655 20 637 -20 655 -7 b 627 93 655 39 646 63 b 387 444 589 151 509 268 l 433 506 b 543 653 489 578 526 627 b 555 680 551 665 555 673 b 530 704 555 696 547 704 l 434 704 b 395 680 421 704 408 696 b 259 495 370 649 324 587 b 254 910 259 606 257 744 b 202 954 254 939 237 954 l 129 954 b 77 902 94 954 77 937 b 64 26 77 861 73 569 b 118 -20 64 -5 82 -20 l 208 -20 b 267 26 248 -20 267 -5 b 264 281 267 58 267 143 l 343 83 b 411 -20 370 14 392 -20 l 601 -20 z "},"l":{"ha":407,"x_min":0,"x_max":0,"o":"m 107 974 b 56 922 73 974 56 957 b 69 62 56 902 60 615 b 123 0 69 21 87 0 b 278 5 184 0 235 2 b 406 46 363 12 406 25 l 406 117 b 254 144 406 135 355 144 b 313 925 294 644 313 904 b 267 974 313 958 298 974 l 107 974 z "},"m":{"ha":906,"x_min":0,"x_max":0,"o":"m 635 629 b 496 540 578 629 532 600 b 358 602 465 581 418 602 b 250 540 321 602 284 581 b 184 618 250 592 228 618 l 138 618 b 71 559 93 618 71 599 l 60 123 l 60 54 b 111 3 60 20 77 3 l 209 3 b 260 49 243 3 260 18 b 255 285 260 117 258 196 b 309 334 277 317 295 334 b 355 298 323 334 339 321 b 399 81 384 252 399 180 l 399 71 b 429 27 399 41 409 27 l 526 27 b 553 57 545 27 553 37 b 558 266 555 168 556 237 b 586 309 560 295 570 309 b 648 52 621 309 641 223 b 700 0 650 17 667 0 l 803 0 b 854 50 831 0 848 16 b 863 266 860 88 863 160 b 635 629 863 508 787 629 z "},"n":{"ha":652,"x_min":0,"x_max":0,"o":"m 207 16 b 258 71 241 16 258 35 l 258 198 b 356 347 290 298 323 347 b 446 76 416 347 446 257 b 475 41 446 52 456 41 l 573 41 b 603 79 593 41 603 54 b 608 277 603 96 605 162 l 608 300 b 405 616 608 511 541 616 b 250 475 345 616 293 569 b 248 567 248 502 248 532 b 182 632 248 610 226 632 l 136 632 b 71 554 93 632 71 606 b 58 65 71 475 62 303 b 109 16 58 33 75 16 l 207 16 z "},"o":{"ha":626,"x_min":0,"x_max":0,"o":"m 322 621 b 96 518 235 621 159 587 b 22 315 47 463 22 395 b 86 113 22 241 43 174 b 307 -8 144 32 217 -8 b 537 109 398 -8 475 31 b 604 304 581 164 604 229 b 551 486 604 371 586 432 b 322 621 492 576 416 621 z "},"p":{"ha":616,"x_min":0,"x_max":0,"o":"m 218 -316 b 264 -273 249 -316 264 -302 b 259 72 264 -212 262 -97 b 338 56 292 61 319 56 b 509 146 403 56 460 85 b 587 380 562 209 587 287 b 571 492 587 423 582 460 b 389 647 537 595 477 647 b 251 552 337 647 291 615 l 251 604 b 197 658 251 640 233 658 l 129 658 b 75 612 93 658 75 642 l 61 -270 b 113 -316 61 -300 78 -316 l 218 -316 z "},"q":{"ha":606,"x_min":0,"x_max":0,"o":"m 416 624 b 367 591 395 624 379 613 b 283 613 333 606 305 613 b 76 485 198 613 129 570 b 25 288 42 429 25 363 b 71 112 25 222 41 164 b 226 22 106 52 158 22 b 353 103 273 22 316 49 b 348 -304 353 32 351 -104 b 399 -350 348 -334 365 -350 l 505 -350 b 551 -307 536 -350 551 -336 b 538 578 551 -262 547 32 b 484 624 538 608 519 624 l 416 624 z "},"r":{"ha":608,"x_min":0,"x_max":0,"o":"m 208 0 b 262 46 243 0 262 16 l 256 258 b 346 505 286 422 315 505 b 370 464 362 505 370 491 b 392 420 370 435 378 420 l 566 420 b 593 448 584 420 593 429 b 566 608 593 508 584 561 b 400 711 541 676 486 711 b 245 582 336 711 285 668 b 183 618 241 606 220 618 l 137 618 b 73 548 97 618 76 595 b 58 49 68 476 63 310 b 118 0 58 16 78 0 l 208 0 z "},"s":{"ha":584,"x_min":0,"x_max":0,"o":"m 283 -16 b 470 31 355 -16 417 -1 b 552 168 525 64 552 111 b 452 304 552 231 519 276 b 270 437 330 353 270 398 b 302 480 270 466 281 480 b 330 423 321 480 330 461 b 406 385 330 398 355 385 l 471 385 b 552 442 525 385 552 404 b 490 563 552 484 531 524 b 283 629 439 607 370 629 b 120 576 228 629 174 612 b 42 434 68 540 42 492 b 159 285 42 369 81 319 b 327 174 271 235 327 199 b 303 146 327 155 319 146 b 229 184 270 146 245 159 b 170 231 210 215 191 231 l 80 231 b 26 157 44 231 26 206 b 75 68 26 132 42 102 b 283 -16 130 12 200 -16 z "},"t":{"ha":505,"x_min":0,"x_max":0,"o":"m 292 0 b 347 76 324 0 342 25 b 370 448 353 138 360 262 l 461 446 b 479 477 473 446 479 456 l 479 559 b 450 593 479 582 469 593 l 378 591 l 388 787 b 321 849 388 828 366 849 l 194 849 b 136 806 155 849 136 835 l 145 583 l 64 581 b 20 551 35 581 20 570 l 20 491 b 64 456 20 469 35 458 b 151 453 93 456 121 454 l 168 98 b 224 0 172 33 190 0 l 292 0 z "},"u":{"ha":654,"x_min":0,"x_max":0,"o":"m 525 3 b 585 75 562 3 582 27 b 598 570 589 149 593 314 b 536 618 598 602 577 618 l 460 618 b 397 564 418 618 397 600 b 389 442 397 509 395 469 b 300 288 366 339 336 288 b 240 353 276 288 256 309 b 210 559 220 403 210 471 b 175 594 210 583 199 594 l 96 594 b 53 559 67 594 53 583 b 50 460 53 545 52 511 b 47 345 47 408 47 370 b 53 247 47 307 49 274 b 240 19 76 95 138 19 b 406 160 309 19 364 66 b 408 65 408 130 408 98 b 463 3 408 24 427 3 l 525 3 z "},"v":{"ha":634,"x_min":0,"x_max":0,"o":"m 62 618 b 0 564 21 618 0 600 b 247 54 0 553 82 383 b 320 -11 269 11 294 -11 l 385 -11 b 441 39 408 -11 427 5 b 540 307 460 85 493 174 b 629 564 600 463 629 549 b 567 618 629 600 608 618 l 491 618 b 429 586 457 618 436 608 l 347 369 l 274 581 b 209 618 264 606 243 618 l 62 618 z "},"w":{"ha":818,"x_min":0,"x_max":0,"o":"m 618 0 b 673 27 648 0 667 9 b 787 506 682 54 720 214 b 805 589 799 555 805 583 b 738 629 805 616 783 629 l 662 629 b 600 600 627 629 607 619 l 513 361 l 467 471 b 404 532 452 511 431 532 b 340 469 380 532 359 511 b 293 363 327 443 311 408 l 271 545 b 201 629 264 602 241 629 l 57 629 b 5 578 22 629 5 612 b 198 41 5 566 70 387 b 258 0 209 14 229 0 l 317 0 b 376 47 347 0 367 16 b 404 184 385 76 394 121 l 423 98 b 491 0 439 33 461 0 l 618 0 z "},"x":{"ha":659,"x_min":0,"x_max":0,"o":"m 62 602 b -1 553 20 602 -1 586 b 37 481 -1 536 12 513 b 219 247 73 434 134 356 b 67 18 118 116 67 40 b 121 -27 67 -12 85 -27 l 196 -27 b 251 3 214 -27 233 -17 b 330 106 271 25 298 59 b 460 -27 394 17 437 -27 l 542 -27 b 596 24 578 -27 596 -10 b 463 271 596 43 552 125 l 583 423 b 667 548 639 492 667 534 b 602 602 667 584 645 602 l 526 602 b 472 574 507 602 489 593 b 368 442 444 544 410 500 l 303 551 b 235 602 283 585 260 602 l 62 602 z "},"y":{"ha":636,"x_min":0,"x_max":0,"o":"m 313 -309 b 435 -279 355 -309 396 -299 b 561 -41 511 -241 553 -161 b 575 568 567 57 572 260 b 511 618 575 602 553 618 l 437 618 b 372 570 394 618 372 602 b 378 393 372 521 378 451 b 296 296 378 328 351 296 b 228 347 262 296 239 313 b 212 545 218 382 212 448 b 177 602 212 583 201 602 l 90 602 b 50 578 63 602 50 594 l 50 347 b 220 27 50 134 106 27 b 383 122 292 27 347 59 l 385 -7 b 334 -133 385 -91 368 -133 b 241 -81 320 -133 289 -115 b 199 -60 221 -66 208 -60 b 134 -95 172 -60 151 -71 b 98 -171 110 -130 98 -155 b 145 -242 98 -196 117 -218 b 313 -309 197 -287 253 -309 z "},"z":{"ha":618,"x_min":0,"x_max":0,"o":"m 544 -20 b 563 -1 557 -20 563 -14 l 563 115 b 536 142 563 134 554 142 b 286 121 383 128 300 121 l 530 435 b 623 582 592 511 623 559 b 557 623 623 609 601 623 l 66 623 b 37 587 47 623 37 611 l 37 495 b 58 460 37 471 43 460 l 262 479 b 23 44 102 207 23 62 b 92 -6 23 11 46 -6 b 544 -20 159 -11 310 -16 z "},"{":{"ha":437,"x_min":0,"x_max":0,"o":"m 346 -144 b 403 -96 384 -144 403 -128 l 403 -33 b 338 16 403 0 381 16 b 294 46 309 16 294 26 b 312 181 294 71 300 116 b 330 317 323 247 330 292 b 273 483 330 386 311 441 l 273 486 b 330 654 311 535 330 591 b 313 787 330 668 324 713 b 294 928 300 864 294 911 b 321 955 294 946 303 955 b 403 1028 376 955 403 979 l 403 1047 b 351 1115 403 1093 386 1115 b 227 1099 294 1115 252 1109 b 96 892 140 1062 96 994 b 106 807 96 876 100 847 b 134 608 125 682 134 616 b 121 567 134 581 130 567 b 34 494 63 567 34 543 l 34 475 b 99 410 34 431 56 410 b 134 373 123 410 134 397 b 124 289 134 352 131 324 b 96 76 106 204 96 133 b 113 -14 96 47 102 17 b 346 -144 146 -100 223 -144 z "},"|":{"ha":271,"x_min":0,"x_max":0,"o":"m 80 1115 b 34 1072 50 1115 34 1101 b 47 -98 34 988 39 598 b 102 -144 47 -128 66 -144 l 170 -144 b 224 -92 205 -144 224 -127 l 237 1069 b 186 1115 237 1099 220 1115 l 80 1115 z "},"}":{"ha":437,"x_min":0,"x_max":0,"o":"m 91 -144 b 324 -14 214 -144 291 -100 b 340 76 335 17 340 47 b 313 289 340 133 331 204 b 302 373 306 324 302 352 b 338 410 302 397 314 410 b 403 475 381 410 403 431 l 403 494 b 316 567 403 543 374 567 b 302 608 307 567 302 581 b 330 807 302 616 312 682 b 340 892 337 847 340 876 b 210 1099 340 994 297 1062 b 85 1115 185 1109 143 1115 b 34 1047 51 1115 34 1093 l 34 1028 b 115 955 34 979 61 955 b 142 928 134 955 142 946 b 123 787 142 911 136 864 b 107 654 113 713 107 668 b 164 486 107 591 126 535 l 164 483 b 107 317 126 441 107 386 b 125 181 107 292 113 247 b 142 46 136 116 142 71 b 99 16 142 26 128 16 b 34 -33 56 16 34 0 l 34 -96 b 91 -144 34 -128 53 -144 z "},"~":{"ha":525,"x_min":0,"x_max":0,"o":"m 434 643 b 382 621 399 643 382 635 b 350 532 382 562 372 532 b 285 579 344 532 317 555 b 176 632 238 614 202 632 b 92 610 144 632 116 625 b 34 484 54 586 34 544 b 38 391 34 460 35 429 b 84 334 41 353 57 334 l 103 334 b 141 358 123 334 136 342 b 190 434 157 409 173 434 b 257 392 212 434 238 409 b 372 331 301 351 340 331 b 491 501 451 331 491 388 l 491 564 b 434 643 491 616 472 643 z "},"¡":{"ha":271,"x_min":0,"x_max":0,"o":"m 110 331 b 47 279 68 331 47 314 l 34 -298 b 85 -345 34 -329 51 -345 l 191 -345 b 237 -301 222 -345 237 -330 l 224 282 b 153 331 224 315 200 331 z m 88 629 b 34 575 52 629 34 611 l 34 486 b 88 431 34 450 52 431 l 183 431 b 235 486 218 431 235 450 l 235 564 b 180 629 235 608 216 629 z "},"¢":{"ha":690,"x_min":0,"x_max":0,"o":"m 330 237 b 325 300 327 255 325 276 b 409 458 325 406 353 458 b 431 450 418 458 425 456 b 330 237 402 389 369 319 z m 393 163 b 494 382 422 224 456 298 l 602 382 b 656 437 637 382 656 401 b 590 581 656 490 634 538 b 586 585 589 582 587 583 b 612 642 595 604 604 623 b 627 688 622 663 627 679 b 611 710 627 699 621 707 b 572 722 586 718 573 722 b 555 709 566 722 560 718 b 515 627 553 707 539 680 b 422 643 487 637 456 643 b 222 528 347 643 279 604 b 149 293 173 460 149 382 b 165 182 149 260 155 223 b 242 48 180 123 205 79 b 213 -14 233 28 223 7 b 206 -38 208 -24 206 -32 b 222 -60 206 -49 212 -56 l 269 -75 b 290 -54 275 -75 282 -68 b 320 7 297 -40 307 -20 b 404 -3 345 1 373 -3 b 602 87 496 -3 562 27 b 664 244 643 149 664 201 b 626 296 664 272 651 289 b 515 307 602 302 566 306 b 469 269 484 307 469 294 b 404 163 469 198 447 163 b 393 163 400 163 397 163 z "},"£":{"ha":651,"x_min":0,"x_max":0,"o":"m 85 -14 b 503 14 201 -14 341 -5 b 617 73 579 22 617 41 l 617 136 b 563 190 617 172 599 190 b 479 179 539 190 511 186 b 378 168 448 172 414 168 b 259 174 340 168 300 170 b 321 315 284 245 305 292 l 392 315 b 460 388 437 315 460 339 l 460 454 b 392 489 460 473 437 485 l 335 494 b 259 735 284 574 259 655 b 311 803 259 781 276 803 b 397 760 349 803 378 789 b 460 708 421 725 442 708 b 500 724 475 708 488 713 b 579 822 553 770 579 802 b 557 875 579 837 572 854 b 319 993 498 954 419 993 b 142 937 254 993 195 974 b 53 760 83 894 53 835 b 123 499 53 675 77 589 l 110 499 b 56 439 74 499 56 479 l 56 369 b 113 309 56 329 75 309 b 34 41 60 203 34 114 b 85 -14 34 5 51 -14 z "},"¥":{"ha":727,"x_min":0,"x_max":0,"o":"m 395 0 b 454 52 431 0 450 17 b 457 152 456 68 457 102 b 541 155 485 153 513 154 b 582 222 568 155 582 178 l 582 258 b 528 328 582 304 564 328 l 479 328 l 465 331 l 465 366 l 526 366 b 582 437 564 366 582 390 l 582 472 b 533 543 582 519 566 543 b 693 920 640 781 693 907 b 642 974 693 956 676 974 l 530 974 b 492 949 512 974 500 966 l 362 659 l 281 841 b 194 974 243 930 215 974 l 80 974 b 34 922 50 974 34 957 b 194 551 34 907 87 783 b 151 496 165 537 151 519 l 151 418 b 202 361 151 380 168 361 l 267 361 l 267 334 l 208 334 b 151 282 170 334 151 317 l 151 198 b 197 146 151 163 166 146 l 275 146 l 275 84 b 338 0 275 28 296 0 l 395 0 z "},"¦":{"ha":271,"x_min":0,"x_max":0,"o":"m 80 974 b 34 955 50 974 34 968 b 47 452 34 919 39 751 b 102 433 47 439 66 433 l 170 433 b 224 455 205 433 224 440 l 237 954 b 186 974 237 967 220 974 z m 80 191 b 34 172 50 191 34 185 b 47 -330 34 136 39 -31 b 102 -350 47 -343 66 -350 l 170 -350 b 224 -328 205 -350 224 -342 l 237 172 b 186 191 237 184 220 191 z "},"§":{"ha":586,"x_min":0,"x_max":0,"o":"m 191 296 b 330 171 283 239 330 198 b 294 146 330 155 318 146 b 245 183 270 146 254 159 b 228 240 238 208 232 227 b 134 290 216 273 185 290 b 34 233 67 290 34 271 b 98 77 34 180 55 127 b 319 -16 150 15 223 -16 b 470 31 368 -16 418 -1 b 552 155 525 65 552 106 b 460 328 552 223 522 281 b 552 461 522 370 552 414 b 433 656 552 548 512 613 b 273 800 326 713 273 761 b 313 836 273 824 286 836 b 370 789 347 836 366 820 b 427 716 378 741 397 716 l 487 716 b 538 768 522 716 538 733 b 480 913 538 820 519 869 b 289 987 434 962 370 987 b 126 941 229 987 174 972 b 45 795 72 907 45 858 b 134 640 45 737 75 686 b 45 483 75 593 45 541 b 191 296 45 416 94 353 z "},"¨":{"ha":467,"x_min":0,"x_max":0,"o":"m 77 812 b 34 760 48 812 34 795 l 34 697 b 77 644 34 662 48 644 l 156 644 b 199 697 185 644 199 662 l 199 760 b 156 812 199 795 185 812 z m 311 812 b 267 760 281 812 267 795 l 267 697 b 311 644 267 662 281 644 l 389 644 b 433 697 418 644 433 662 l 433 760 b 389 812 433 795 418 812 z "},"©":{"ha":921,"x_min":0,"x_max":0,"o":"m 461 1 b 770 144 582 1 685 49 b 898 488 855 239 898 354 b 770 833 898 623 855 738 b 461 975 685 928 582 975 b 152 833 340 975 237 928 b 24 488 66 738 24 623 b 152 144 24 354 66 239 b 461 1 237 49 340 1 z m 460 56 b 190 182 355 56 264 98 b 79 489 116 267 79 369 b 190 794 79 608 116 710 b 460 921 264 879 355 921 b 729 794 565 921 655 879 b 840 489 803 710 840 608 b 729 182 840 369 803 267 b 460 56 655 98 565 56 z m 454 264 b 567 315 501 264 539 281 b 594 374 585 339 594 359 b 570 403 594 393 586 403 l 504 403 b 482 387 490 403 483 397 b 458 347 479 360 471 347 b 424 374 446 347 435 356 b 404 471 410 399 404 432 b 415 566 404 507 408 538 b 444 602 422 590 432 602 b 467 576 458 602 467 593 b 500 542 469 553 479 542 l 570 542 b 593 563 585 542 593 549 b 583 625 593 589 589 609 b 454 720 555 688 512 720 b 372 684 422 720 395 708 b 306 483 328 634 306 567 b 317 386 306 446 310 414 b 454 264 340 304 386 264 z "},"«":{"ha":537,"x_min":0,"x_max":0,"o":"m 172 540 b 123 521 147 540 131 534 b 34 347 64 420 34 362 b 77 243 34 336 48 301 b 159 157 106 186 134 157 l 235 157 b 283 195 267 157 283 170 b 267 257 283 214 278 235 b 218 350 256 279 240 311 b 266 435 239 386 255 414 b 283 491 277 458 283 477 b 229 540 283 524 265 540 z m 392 540 b 343 521 367 540 351 534 b 254 347 283 420 254 362 b 297 243 254 336 268 301 b 378 157 326 186 353 157 l 454 157 b 503 195 487 157 503 170 b 487 257 503 214 498 235 b 438 350 476 279 460 311 b 486 435 459 386 475 414 b 503 491 497 458 503 477 b 449 540 503 524 485 540 z "},"¬":{"ha":510,"x_min":0,"x_max":0,"o":"m 400 252 b 476 309 451 252 476 271 l 476 515 b 408 564 476 548 454 564 b 167 570 367 564 286 566 l 85 570 b 34 518 51 570 34 553 l 34 439 b 91 382 34 401 53 382 l 289 384 l 289 293 b 359 252 289 266 313 252 l 400 252 z "},"®":{"ha":942,"x_min":0,"x_max":0,"o":"m 471 1 b 780 144 592 1 695 49 b 908 488 865 239 908 354 b 780 833 908 623 865 738 b 471 975 695 928 592 975 b 162 833 351 975 248 928 b 34 488 77 738 34 623 b 162 144 34 354 77 239 b 471 1 248 49 351 1 z m 470 56 b 200 182 365 56 275 98 b 89 489 126 267 89 369 b 200 794 89 608 126 710 b 470 921 275 879 365 921 b 739 794 575 921 665 879 b 850 489 813 710 850 608 b 739 182 850 369 813 267 b 470 56 665 98 575 56 z m 602 264 b 625 283 617 264 625 271 b 614 318 625 291 622 302 b 556 445 603 343 584 386 b 637 574 610 473 637 516 b 589 675 637 614 621 648 b 505 701 567 692 539 701 b 437 691 482 701 459 697 b 417 698 432 696 425 698 l 375 698 b 352 676 359 698 352 690 l 357 302 b 385 264 357 277 366 264 l 414 264 b 438 291 430 264 438 273 b 441 444 438 328 439 379 l 475 433 l 527 311 b 562 264 540 279 551 264 z "},"¯":{"ha":296,"x_min":0,"x_max":0,"o":"m 35 738 b 212 741 90 738 149 739 b 296 795 268 743 296 760 l 296 868 b 272 913 296 897 288 911 b 41 928 193 923 115 928 b -4 873 11 928 -4 909 l -4 790 b 35 738 -4 755 9 738 z "},"°":{"ha":450,"x_min":0,"x_max":0,"o":"m 227 548 b 347 597 271 548 311 564 b 416 779 393 640 416 700 b 363 938 416 848 399 902 b 227 993 326 975 280 993 b 93 934 177 993 133 973 b 34 770 54 894 34 840 b 53 673 34 739 40 707 b 227 548 85 589 142 548 z "},"±":{"ha":456,"x_min":0,"x_max":0,"o":"m 245 252 b 321 309 296 252 321 271 l 321 385 l 387 385 b 449 434 428 385 449 401 l 449 515 b 381 564 449 548 427 564 l 319 564 l 319 643 b 262 697 319 679 300 697 l 194 697 b 140 643 158 697 140 679 l 140 570 l 58 570 b 7 518 24 570 7 553 l 7 439 b 64 382 7 401 26 382 l 134 382 l 134 293 b 205 252 134 266 158 252 z m 134 0 b 387 3 259 2 343 3 b 449 52 428 3 449 19 l 449 133 b 381 182 449 165 427 182 l 58 187 b 7 136 24 187 7 170 l 7 57 b 64 0 7 19 26 0 z "},"´":{"ha":263,"x_min":0,"x_max":0,"o":"m 142 810 b 115 799 130 810 121 806 b 34 671 61 723 34 680 b 61 644 34 653 43 644 l 125 644 b 153 661 136 644 144 650 b 229 780 203 730 229 770 b 194 810 229 800 218 810 l 142 810 z "},"¶":{"ha":768,"x_min":0,"x_max":0,"o":"m 457 993 b 178 928 332 993 239 971 b 34 662 82 861 34 772 b 145 442 34 572 71 498 b 313 372 201 402 258 378 l 313 65 b 365 0 313 22 330 0 b 425 52 405 0 425 17 l 425 825 l 538 825 l 536 57 b 590 0 536 19 554 0 l 625 0 b 677 52 660 0 677 17 l 677 825 b 734 879 715 825 734 843 l 734 936 b 655 993 734 974 707 993 l 457 993 z "},"·":{"ha":233,"x_min":0,"x_max":0,"o":"m 53 571 b 9 518 24 571 9 553 l 9 456 b 53 403 9 420 24 403 l 131 403 b 175 456 160 403 175 420 l 175 518 b 131 571 175 553 160 571 l 53 571 z "},"∙":{"ha":233,"x_min":0,"x_max":0,"o":"m 53 571 b 9 518 24 571 9 553 l 9 456 b 53 403 9 420 24 403 l 131 403 b 175 456 160 403 175 420 l 175 518 b 131 571 175 553 160 571 l 53 571 z "},"¸":{"ha":312,"x_min":0,"x_max":0,"o":"m 88 -289 b 161 -276 115 -289 140 -285 b 278 -132 239 -244 277 -196 b 212 -26 278 -83 256 -48 b 138 5 174 -5 149 5 b 110 -9 127 5 119 0 b 69 -70 83 -38 69 -58 b 83 -99 69 -90 74 -99 b 151 -125 128 -99 151 -108 b 99 -157 151 -146 134 -157 b 34 -215 56 -157 34 -176 b 88 -289 34 -264 52 -289 z "},"»":{"ha":537,"x_min":0,"x_max":0,"o":"m 88 540 b 34 491 52 540 34 524 b 52 435 34 477 40 458 b 99 350 62 414 78 386 b 50 257 77 311 61 279 b 34 195 39 235 34 214 b 83 157 34 170 50 157 l 159 157 b 239 243 184 157 210 186 b 283 347 269 301 283 336 b 194 521 283 362 254 420 b 145 540 186 534 170 540 z m 308 540 b 254 491 272 540 254 524 b 271 435 254 477 260 458 b 319 350 282 414 298 386 b 270 257 297 311 281 279 b 254 195 259 235 254 214 b 302 157 254 170 270 157 l 378 157 b 459 243 404 157 430 186 b 503 347 488 301 503 336 b 414 521 503 362 473 420 b 365 540 406 534 390 540 z "},"¼":{"ha":971,"x_min":0,"x_max":0,"o":"m 169 974 b 127 950 149 974 136 966 b 54 794 79 859 54 807 b 105 747 54 762 71 747 l 125 747 l 130 410 b 181 362 130 378 147 362 l 227 362 b 280 410 262 362 280 378 l 289 931 b 237 974 289 960 272 974 z m 292 0 b 332 19 311 0 325 6 b 515 448 341 33 402 176 b 712 917 636 739 702 895 b 720 944 717 927 720 937 b 666 974 720 964 702 974 l 616 974 b 586 960 602 974 592 969 b 323 431 577 947 490 770 b 142 54 207 193 146 68 b 140 35 140 47 140 41 b 191 0 140 12 157 0 z m 858 0 b 911 81 891 0 909 27 b 917 569 912 158 914 321 b 870 612 917 597 901 612 l 801 612 b 765 597 785 612 772 607 b 622 369 751 578 703 503 b 530 201 560 267 530 211 b 581 155 530 170 547 155 l 759 155 l 759 53 b 812 0 759 18 777 0 z m 691 270 l 759 393 l 759 270 z "},"½":{"ha":1015,"x_min":0,"x_max":0,"o":"m 169 974 b 127 950 149 974 136 966 b 54 794 79 859 54 807 b 105 747 54 762 71 747 l 125 747 l 130 410 b 181 362 130 378 147 362 l 227 362 b 280 410 262 362 280 378 l 289 931 b 237 974 289 960 272 974 z m 292 0 b 332 19 311 0 325 6 b 515 448 341 33 402 176 b 712 917 636 739 702 895 b 720 944 717 927 720 937 b 666 974 720 964 702 974 l 616 974 b 586 960 602 974 592 969 b 323 431 577 947 490 770 b 142 54 207 193 146 68 b 140 35 140 47 140 41 b 191 0 140 12 157 0 z m 631 0 b 895 5 797 3 884 5 b 960 60 939 5 960 24 l 960 76 b 875 133 960 111 932 130 b 773 137 822 136 788 137 b 833 213 781 151 801 176 b 956 454 915 309 956 389 b 916 562 956 498 943 534 b 759 622 877 602 825 622 b 655 600 715 622 680 614 b 570 509 599 566 570 536 b 579 484 570 498 573 490 b 659 425 614 445 640 425 b 713 457 675 425 694 436 b 764 479 727 472 744 479 b 803 444 790 479 803 468 b 734 304 803 401 780 355 b 581 47 632 193 581 107 b 629 0 581 16 597 0 z "},"¾":{"ha":1142,"x_min":0,"x_max":0,"o":"m 246 360 b 396 416 298 360 349 379 b 460 551 439 452 460 496 b 368 709 460 622 429 674 b 418 836 401 739 418 782 b 393 916 418 865 410 892 b 227 993 355 967 300 993 b 132 975 188 993 156 987 b 54 899 80 949 54 924 b 77 859 54 888 62 874 b 157 808 110 825 136 808 b 195 824 176 808 189 813 b 252 878 216 860 235 878 b 271 825 264 878 271 860 b 213 749 271 785 252 760 b 137 698 162 737 137 720 l 137 677 b 169 635 137 653 148 639 b 235 621 195 631 217 627 b 312 547 286 608 312 583 b 254 477 312 498 283 477 b 215 496 235 477 222 483 b 155 541 201 526 180 541 b 101 517 142 541 125 532 b 61 465 75 498 61 481 b 83 424 61 454 68 441 b 246 360 119 381 173 360 z m 463 0 b 503 19 482 0 496 6 b 686 448 512 33 573 176 b 883 917 807 739 873 895 b 890 944 888 927 890 937 b 837 974 890 964 873 974 l 787 974 b 757 960 772 974 763 969 b 494 431 748 947 661 770 b 313 54 378 193 317 68 b 311 35 311 47 311 41 b 362 0 311 12 328 0 z m 1029 0 b 1082 81 1062 0 1080 27 b 1088 569 1083 158 1085 321 b 1041 612 1088 597 1072 612 l 972 612 b 936 597 956 612 943 607 b 793 369 922 578 874 503 b 701 201 731 267 701 211 b 751 155 701 170 718 155 l 930 155 l 930 53 b 983 0 930 18 947 0 z m 862 270 l 930 393 l 930 270 z "},"¿":{"ha":454,"x_min":0,"x_max":0,"o":"m 184 304 b 127 264 150 304 131 291 b 58 102 120 208 97 154 b -62 -152 -22 -7 -62 -92 b -39 -256 -62 -193 -54 -228 b 205 -391 12 -346 94 -391 b 374 -361 282 -391 338 -380 b 480 -250 445 -321 480 -284 b 437 -176 480 -231 466 -206 b 353 -109 396 -131 368 -109 b 328 -117 342 -109 334 -111 b 190 -198 276 -171 230 -198 b 144 -155 159 -198 144 -184 b 166 -90 144 -132 151 -111 b 304 250 258 37 304 151 b 298 269 304 253 302 260 b 233 304 290 292 268 304 z m 264 404 b 315 467 298 404 315 425 l 315 540 b 264 602 315 581 298 602 l 172 602 b 120 540 137 602 120 581 l 120 467 b 172 404 120 425 137 404 z "},"À":{"ha":668,"x_min":0,"x_max":0,"o":"m 620 -14 b 669 41 652 -14 669 5 b 452 903 669 56 597 343 b 408 960 443 941 428 960 l 267 960 b 216 898 243 960 226 939 b 7 38 77 334 7 47 b 56 -14 7 3 23 -14 l 118 -14 b 165 24 138 -14 154 -1 b 202 163 178 52 190 98 l 433 163 b 460 45 445 102 454 63 b 517 -14 473 6 492 -14 z m 243 1181 b 208 1152 219 1181 208 1171 b 284 1033 208 1141 233 1102 b 311 1016 292 1021 301 1016 l 376 1016 b 403 1043 394 1016 403 1025 b 321 1171 403 1052 376 1095 b 294 1181 316 1178 307 1181 z "},"Á":{"ha":668,"x_min":0,"x_max":0,"o":"m 620 -14 b 669 41 652 -14 669 5 b 452 903 669 56 597 343 b 408 960 443 941 428 960 l 267 960 b 216 898 243 960 226 939 b 7 38 77 334 7 47 b 56 -14 7 3 23 -14 l 118 -14 b 165 24 138 -14 154 -1 b 202 163 178 52 190 98 l 433 163 b 460 45 445 102 454 63 b 517 -14 473 6 492 -14 z m 381 1181 b 354 1171 368 1181 359 1178 b 273 1043 300 1095 273 1052 b 300 1016 273 1025 281 1016 l 364 1016 b 391 1033 374 1016 383 1021 b 468 1152 442 1102 468 1141 b 433 1181 468 1171 456 1181 z "},"Â":{"ha":668,"x_min":0,"x_max":0,"o":"m 620 -14 b 669 41 652 -14 669 5 b 452 903 669 56 597 343 b 408 960 443 941 428 960 l 267 960 b 216 898 243 960 226 939 b 7 38 77 334 7 47 b 56 -14 7 3 23 -14 l 118 -14 b 165 24 138 -14 154 -1 b 202 163 178 52 190 98 l 433 163 b 460 45 445 102 454 63 b 517 -14 473 6 492 -14 z m 446 1016 b 465 1043 459 1016 465 1025 b 394 1158 465 1053 441 1091 b 357 1181 384 1174 371 1181 l 326 1181 b 283 1157 309 1181 295 1173 b 210 1043 235 1090 210 1053 b 229 1016 210 1025 216 1016 l 308 1016 b 336 1043 321 1016 330 1025 b 370 1016 350 1025 361 1016 z "},"Ã":{"ha":668,"x_min":0,"x_max":0,"o":"m 620 -14 b 669 41 652 -14 669 5 b 452 903 669 56 597 343 b 408 960 443 941 428 960 l 267 960 b 216 898 243 960 226 939 b 7 38 77 334 7 47 b 56 -14 7 3 23 -14 l 118 -14 b 165 24 138 -14 154 -1 b 202 163 178 52 190 98 l 433 163 b 460 45 445 102 454 63 b 517 -14 473 6 492 -14 z m 426 1181 b 391 1143 402 1181 391 1168 b 282 1179 338 1167 302 1179 b 214 1146 256 1179 233 1168 b 179 1046 191 1120 179 1086 b 206 1016 179 1026 188 1016 l 266 1016 b 285 1043 279 1016 285 1025 l 285 1054 b 407 1019 351 1030 392 1019 b 473 1055 435 1019 457 1031 b 496 1152 488 1077 496 1109 b 461 1181 496 1171 485 1181 z "},"Ä":{"ha":668,"x_min":0,"x_max":0,"o":"m 620 -14 b 669 41 652 -14 669 5 b 452 903 669 56 597 343 b 408 960 443 941 428 960 l 267 960 b 216 898 243 960 226 939 b 7 38 77 334 7 47 b 56 -14 7 3 23 -14 l 118 -14 b 165 24 138 -14 154 -1 b 202 163 178 52 190 98 l 433 163 b 460 45 445 102 454 63 b 517 -14 473 6 492 -14 z m 182 1184 b 138 1131 153 1184 138 1166 l 138 1069 b 182 1016 138 1034 153 1016 l 260 1016 b 304 1069 290 1016 304 1034 l 304 1131 b 260 1184 304 1166 290 1184 z m 415 1184 b 372 1131 386 1184 372 1166 l 372 1069 b 415 1016 372 1034 386 1016 l 494 1016 b 537 1069 523 1016 537 1034 l 537 1131 b 494 1184 537 1166 523 1184 z "},"Å":{"ha":668,"x_min":0,"x_max":0,"o":"m 620 -14 b 669 41 652 -14 669 5 b 452 903 669 56 597 343 b 408 960 443 941 428 960 l 267 960 b 216 898 243 960 226 939 b 7 38 77 334 7 47 b 56 -14 7 3 23 -14 l 118 -14 b 165 24 138 -14 154 -1 b 202 163 178 52 190 98 l 433 163 b 460 45 445 102 454 63 b 517 -14 473 6 492 -14 z m 338 996 b 414 1028 368 996 393 1006 b 446 1106 435 1050 446 1076 b 414 1183 446 1137 435 1162 b 338 1216 393 1205 368 1216 b 261 1183 308 1216 282 1205 b 229 1106 240 1162 229 1137 b 261 1028 229 1076 240 1050 b 338 996 282 1006 308 996 z "},"Æ":{"ha":905,"x_min":0,"x_max":0,"o":"m 351 163 b 351 64 351 115 351 82 b 408 -7 351 17 370 -7 l 782 -7 b 808 13 800 -7 808 0 l 808 94 b 785 113 808 105 800 111 b 565 123 750 118 677 121 l 562 365 b 723 351 653 355 707 351 b 744 381 737 351 744 361 l 744 549 b 696 581 744 570 728 581 b 559 568 683 581 637 576 l 554 807 l 752 817 b 825 848 801 819 825 829 l 825 907 b 772 940 825 926 808 937 b 515 954 699 946 614 951 b 267 960 416 958 333 960 b 216 898 243 960 226 939 b 7 38 77 334 7 47 b 56 -14 7 3 23 -14 l 118 -14 b 165 24 138 -14 154 -1 b 202 163 178 52 190 98 l 351 163 z "},"Ç":{"ha":691,"x_min":0,"x_max":0,"o":"m 291 -21 b 261 -70 271 -44 261 -60 b 275 -99 261 -90 266 -99 b 342 -125 320 -99 342 -108 b 291 -157 342 -146 326 -157 b 226 -215 248 -157 226 -176 b 280 -289 226 -264 244 -289 b 353 -276 307 -289 332 -285 b 470 -132 431 -244 469 -196 b 404 -26 470 -83 448 -48 b 402 -24 404 -25 403 -25 b 606 87 486 -15 553 22 b 665 217 646 139 665 182 b 612 279 665 258 648 279 l 467 279 b 418 244 437 279 421 268 b 367 155 412 184 395 155 b 291 217 340 155 315 176 b 245 429 260 272 245 342 b 271 640 245 507 254 578 b 334 719 288 692 309 719 b 386 662 367 719 384 700 b 459 586 389 611 414 586 l 611 586 b 663 632 646 586 663 602 b 641 768 663 690 655 734 b 356 979 579 909 484 979 b 177 901 285 979 225 953 b 31 456 79 790 31 642 b 55 241 31 374 39 302 b 291 -21 98 90 177 2 z "},"È":{"ha":539,"x_min":0,"x_max":0,"o":"m 496 -7 b 523 13 514 -7 523 0 l 523 94 b 499 113 523 105 515 111 b 279 123 465 118 391 121 l 277 365 b 437 351 368 355 421 351 b 458 381 452 351 458 361 l 458 549 b 411 581 458 570 443 581 b 274 568 397 581 352 576 l 269 807 l 467 817 b 540 848 515 819 540 829 l 540 907 b 486 940 540 926 522 937 b 121 951 414 946 292 949 b 78 910 93 951 79 938 b 65 64 69 414 65 132 b 122 -7 65 17 84 -7 z m 208 1181 b 172 1152 184 1181 172 1171 b 249 1033 172 1141 198 1102 b 276 1016 257 1021 266 1016 l 340 1016 b 368 1043 359 1016 368 1025 b 286 1171 368 1052 340 1095 b 259 1181 281 1178 272 1181 z "},"É":{"ha":539,"x_min":0,"x_max":0,"o":"m 496 -7 b 523 13 514 -7 523 0 l 523 94 b 499 113 523 105 515 111 b 279 123 465 118 391 121 l 277 365 b 437 351 368 355 421 351 b 458 381 452 351 458 361 l 458 549 b 411 581 458 570 443 581 b 274 568 397 581 352 576 l 269 807 l 467 817 b 540 848 515 819 540 829 l 540 907 b 486 940 540 926 522 937 b 121 951 414 946 292 949 b 78 910 93 951 79 938 b 65 64 69 414 65 132 b 122 -7 65 17 84 -7 z m 346 1181 b 319 1171 333 1181 324 1178 b 237 1043 264 1095 237 1052 b 264 1016 237 1025 246 1016 l 329 1016 b 356 1033 339 1016 348 1021 b 433 1152 407 1102 433 1141 b 397 1181 433 1171 421 1181 z "},"Ê":{"ha":539,"x_min":0,"x_max":0,"o":"m 496 -7 b 523 13 514 -7 523 0 l 523 94 b 499 113 523 105 515 111 b 279 123 465 118 391 121 l 277 365 b 437 351 368 355 421 351 b 458 381 452 351 458 361 l 458 549 b 411 581 458 570 443 581 b 274 568 397 581 352 576 l 269 807 l 467 817 b 540 848 515 819 540 829 l 540 907 b 486 940 540 926 522 937 b 121 951 414 946 292 949 b 78 910 93 951 79 938 b 65 64 69 414 65 132 b 122 -7 65 17 84 -7 z m 411 1016 b 430 1043 424 1016 430 1025 b 359 1158 430 1053 406 1091 b 321 1181 349 1174 336 1181 l 290 1181 b 248 1157 274 1181 260 1173 b 175 1043 199 1090 175 1053 b 194 1016 175 1025 181 1016 l 273 1016 b 301 1043 286 1016 295 1025 b 335 1016 315 1025 326 1016 z "},"Ë":{"ha":539,"x_min":0,"x_max":0,"o":"m 496 -7 b 523 13 514 -7 523 0 l 523 94 b 499 113 523 105 515 111 b 279 123 465 118 391 121 l 277 365 b 437 351 368 355 421 351 b 458 381 452 351 458 361 l 458 549 b 411 581 458 570 443 581 b 274 568 397 581 352 576 l 269 807 l 467 817 b 540 848 515 819 540 829 l 540 907 b 486 940 540 926 522 937 b 121 951 414 946 292 949 b 78 910 93 951 79 938 b 65 64 69 414 65 132 b 122 -7 65 17 84 -7 z m 129 1184 b 85 1131 100 1184 85 1166 l 85 1069 b 129 1016 85 1034 100 1016 l 208 1016 b 251 1069 237 1016 251 1034 l 251 1131 b 208 1184 251 1166 237 1184 z m 362 1184 b 319 1131 333 1184 319 1166 l 319 1069 b 362 1016 319 1034 333 1016 l 441 1016 b 484 1069 470 1016 484 1034 l 484 1131 b 441 1184 484 1166 470 1184 z "},"Ì":{"ha":356,"x_min":0,"x_max":0,"o":"m 253 -14 b 307 36 289 -14 307 3 l 267 895 b 215 960 264 939 247 960 l 136 960 b 92 904 109 960 94 941 l 50 33 b 101 -14 50 2 66 -14 z m 83 1181 b 48 1152 60 1181 48 1171 b 125 1033 48 1141 74 1102 b 152 1016 133 1021 142 1016 l 216 1016 b 243 1043 235 1016 243 1025 b 162 1171 243 1052 216 1095 b 135 1181 157 1178 148 1181 z "},"Í":{"ha":356,"x_min":0,"x_max":0,"o":"m 253 -14 b 307 36 289 -14 307 3 l 267 895 b 215 960 264 939 247 960 l 136 960 b 92 904 109 960 94 941 l 50 33 b 101 -14 50 2 66 -14 z m 222 1181 b 195 1171 209 1181 200 1178 b 113 1043 140 1095 113 1052 b 140 1016 113 1025 122 1016 l 205 1016 b 232 1033 215 1016 224 1021 b 309 1152 283 1102 309 1141 b 273 1181 309 1171 297 1181 z "},"Î":{"ha":356,"x_min":0,"x_max":0,"o":"m 253 -14 b 307 36 289 -14 307 3 l 267 895 b 215 960 264 939 247 960 l 136 960 b 92 904 109 960 94 941 l 50 33 b 101 -14 50 2 66 -14 z m 287 1016 b 306 1043 300 1016 306 1025 b 235 1158 306 1053 282 1091 b 197 1181 224 1174 212 1181 l 166 1181 b 124 1157 150 1181 136 1173 b 51 1043 75 1090 51 1053 b 70 1016 51 1025 57 1016 l 149 1016 b 177 1043 161 1016 171 1025 b 211 1016 191 1025 202 1016 z "},"Ï":{"ha":356,"x_min":0,"x_max":0,"o":"m 253 -14 b 307 36 289 -14 307 3 l 267 895 b 215 960 264 939 247 960 l 136 960 b 92 904 109 960 94 941 l 50 33 b 101 -14 50 2 66 -14 z m 5 1184 b -39 1131 -24 1184 -39 1166 l -39 1069 b 5 1016 -39 1034 -24 1016 l 83 1016 b 127 1069 113 1016 127 1034 l 127 1131 b 83 1184 127 1166 113 1184 z m 238 1184 b 195 1131 209 1184 195 1166 l 195 1069 b 238 1016 195 1034 209 1016 l 317 1016 b 360 1069 346 1016 360 1034 l 360 1131 b 317 1184 360 1166 346 1184 z "},"Ð":{"ha":678,"x_min":0,"x_max":0,"o":"m 215 0 b 256 22 232 0 245 7 b 351 8 283 13 315 8 b 475 49 399 8 441 22 b 646 488 589 137 646 283 b 547 823 646 608 613 720 b 315 966 485 918 408 966 b 245 947 300 966 277 960 b 207 974 235 965 222 974 l 128 974 b 77 914 94 974 77 954 l 73 580 l 29 582 b -17 511 -1 582 -17 558 l -17 454 b 35 392 -17 413 0 392 l 70 393 l 66 52 b 117 0 66 17 83 0 l 215 0 z "},"Ñ":{"ha":701,"x_min":0,"x_max":0,"o":"m 608 0 b 628 55 621 0 628 18 b 635 651 630 159 632 357 b 597 842 635 726 623 789 b 435 944 562 910 508 944 b 258 811 369 944 310 900 l 253 895 b 201 974 250 947 232 974 l 128 974 b 77 930 94 974 77 960 l 63 43 b 123 0 63 14 83 0 l 239 0 b 294 44 275 0 294 15 l 269 553 b 361 651 294 618 326 651 b 462 427 421 651 454 576 b 473 33 467 336 471 204 b 500 0 473 11 481 0 z m 437 1181 b 402 1143 414 1181 402 1168 b 294 1179 349 1167 313 1179 b 225 1146 267 1179 244 1168 b 191 1046 202 1120 191 1086 b 218 1016 191 1026 199 1016 l 277 1016 b 296 1043 290 1016 296 1025 l 296 1054 b 418 1019 363 1030 404 1019 b 484 1055 446 1019 469 1031 b 508 1152 500 1077 508 1109 b 473 1181 508 1171 496 1181 z "},"Ò":{"ha":846,"x_min":0,"x_max":0,"o":"m 395 -15 b 619 39 496 -15 571 3 b 817 498 751 141 817 294 b 805 614 817 543 812 582 b 414 991 747 865 616 991 b 124 833 305 991 209 939 b 24 485 57 748 24 632 b 119 142 24 356 56 241 b 395 -15 189 37 280 -15 z m 326 1181 b 290 1152 302 1181 290 1171 b 367 1033 290 1141 316 1102 b 394 1016 375 1021 384 1016 l 458 1016 b 486 1043 477 1016 486 1025 b 404 1171 486 1052 458 1095 b 377 1181 399 1178 390 1181 z "},"Ó":{"ha":846,"x_min":0,"x_max":0,"o":"m 395 -15 b 619 39 496 -15 571 3 b 817 498 751 141 817 294 b 805 614 817 543 812 582 b 414 991 747 865 616 991 b 124 833 305 991 209 939 b 24 485 57 748 24 632 b 119 142 24 356 56 241 b 395 -15 189 37 280 -15 z m 464 1181 b 437 1171 451 1181 442 1178 b 355 1043 382 1095 355 1052 b 382 1016 355 1025 364 1016 l 447 1016 b 474 1033 457 1016 466 1021 b 551 1152 525 1102 551 1141 b 515 1181 551 1171 539 1181 z "},"Ô":{"ha":846,"x_min":0,"x_max":0,"o":"m 395 -15 b 619 39 496 -15 571 3 b 817 498 751 141 817 294 b 805 614 817 543 812 582 b 414 991 747 865 616 991 b 124 833 305 991 209 939 b 24 485 57 748 24 632 b 119 142 24 356 56 241 b 395 -15 189 37 280 -15 z m 529 1016 b 548 1043 542 1016 548 1025 b 477 1158 548 1053 524 1091 b 439 1181 467 1174 454 1181 l 408 1181 b 366 1157 392 1181 378 1173 b 293 1043 317 1090 293 1053 b 312 1016 293 1025 299 1016 l 391 1016 b 419 1043 404 1016 413 1025 b 453 1016 433 1025 444 1016 z "},"Õ":{"ha":846,"x_min":0,"x_max":0,"o":"m 395 -15 b 619 39 496 -15 571 3 b 817 498 751 141 817 294 b 805 614 817 543 812 582 b 414 991 747 865 616 991 b 124 833 305 991 209 939 b 24 485 57 748 24 632 b 119 142 24 356 56 241 b 395 -15 189 37 280 -15 z m 509 1181 b 473 1143 485 1181 473 1168 b 365 1179 420 1167 385 1179 b 296 1146 338 1179 315 1168 b 262 1046 273 1120 262 1086 b 289 1016 262 1026 271 1016 l 349 1016 b 368 1043 361 1016 368 1025 l 368 1054 b 490 1019 434 1030 475 1019 b 555 1055 517 1019 540 1031 b 579 1152 571 1077 579 1109 b 544 1181 579 1171 568 1181 z "},"Ö":{"ha":846,"x_min":0,"x_max":0,"o":"m 395 -15 b 619 39 496 -15 571 3 b 817 498 751 141 817 294 b 805 614 817 543 812 582 b 414 991 747 865 616 991 b 124 833 305 991 209 939 b 24 485 57 748 24 632 b 119 142 24 356 56 241 b 395 -15 189 37 280 -15 z m 247 1184 b 203 1131 218 1184 203 1166 l 203 1069 b 247 1016 203 1034 218 1016 l 326 1016 b 369 1069 355 1016 369 1034 l 369 1131 b 326 1184 369 1166 355 1184 z m 480 1184 b 437 1131 451 1184 437 1166 l 437 1069 b 480 1016 437 1034 451 1016 l 559 1016 b 602 1069 588 1016 602 1034 l 602 1131 b 559 1184 602 1166 588 1184 z "},"×":{"ha":456,"x_min":0,"x_max":0,"o":"m 314 269 b 369 301 330 269 348 280 l 397 330 b 429 387 418 351 429 370 b 411 424 429 400 422 412 l 357 477 l 404 524 b 428 570 420 540 428 555 b 413 602 428 581 423 592 l 355 660 b 324 674 346 669 336 674 b 273 646 309 674 291 665 l 229 602 l 173 658 b 135 677 161 671 148 677 b 94 656 122 677 109 670 l 47 608 b 28 570 34 595 28 583 b 47 531 28 557 34 544 l 98 479 l 41 422 b 22 385 28 410 22 397 b 41 349 22 374 28 361 l 96 294 b 137 273 110 280 123 273 b 177 294 151 273 164 280 l 227 343 l 290 280 b 314 269 297 273 305 269 z "},"Ø":{"ha":846,"x_min":0,"x_max":0,"o":"m 710 843 b 762 942 727 875 744 908 b 783 995 776 968 783 986 b 741 1023 783 1013 769 1023 l 663 1023 b 617 999 646 1023 630 1015 b 589 951 615 997 606 981 b 414 991 538 977 480 991 b 124 833 305 991 209 939 b 24 485 57 748 24 632 b 119 142 24 356 56 241 l 131 124 b 65 4 110 85 87 45 b 56 -23 59 -7 56 -16 b 98 -47 56 -39 70 -47 l 197 -47 b 242 -15 214 -47 229 -37 b 260 14 247 -7 253 3 b 395 -15 300 -5 345 -15 b 619 39 496 -15 571 3 b 817 498 751 141 817 294 b 805 614 817 543 812 582 b 710 843 783 708 751 784 z "},"Ù":{"ha":709,"x_min":0,"x_max":0,"o":"m 570 0 b 625 46 606 0 625 16 l 638 928 b 592 974 638 958 623 974 l 459 974 b 408 925 425 974 408 958 l 432 420 b 342 323 405 355 375 323 b 247 449 291 323 259 365 b 226 922 237 531 229 688 b 207 947 226 939 220 947 l 90 947 b 71 930 77 947 71 941 b 60 300 64 532 60 322 b 267 30 60 120 129 30 b 440 165 334 30 392 75 l 443 165 l 448 79 b 503 0 450 26 469 0 z m 254 1181 b 219 1152 231 1181 219 1171 b 296 1033 219 1141 245 1102 b 323 1016 304 1021 313 1016 l 387 1016 b 414 1043 406 1016 414 1025 b 333 1171 414 1052 387 1095 b 306 1181 328 1178 319 1181 z "},"Ú":{"ha":709,"x_min":0,"x_max":0,"o":"m 570 0 b 625 46 606 0 625 16 l 638 928 b 592 974 638 958 623 974 l 459 974 b 408 925 425 974 408 958 l 432 420 b 342 323 405 355 375 323 b 247 449 291 323 259 365 b 226 922 237 531 229 688 b 207 947 226 939 220 947 l 90 947 b 71 930 77 947 71 941 b 60 300 64 532 60 322 b 267 30 60 120 129 30 b 440 165 334 30 392 75 l 443 165 l 448 79 b 503 0 450 26 469 0 z m 393 1181 b 366 1171 380 1181 371 1178 b 284 1043 311 1095 284 1052 b 311 1016 284 1025 293 1016 l 376 1016 b 403 1033 386 1016 395 1021 b 479 1152 454 1102 479 1141 b 444 1181 479 1171 468 1181 z "},"Û":{"ha":709,"x_min":0,"x_max":0,"o":"m 570 0 b 625 46 606 0 625 16 l 638 928 b 592 974 638 958 623 974 l 459 974 b 408 925 425 974 408 958 l 432 420 b 342 323 405 355 375 323 b 247 449 291 323 259 365 b 226 922 237 531 229 688 b 207 947 226 939 220 947 l 90 947 b 71 930 77 947 71 941 b 60 300 64 532 60 322 b 267 30 60 120 129 30 b 440 165 334 30 392 75 l 443 165 l 448 79 b 503 0 450 26 469 0 z m 458 1016 b 477 1043 471 1016 477 1025 b 406 1158 477 1053 453 1091 b 368 1181 395 1174 382 1181 l 337 1181 b 295 1157 321 1181 307 1173 b 222 1043 246 1090 222 1053 b 241 1016 222 1025 228 1016 l 319 1016 b 348 1043 332 1016 342 1025 b 382 1016 361 1025 373 1016 z "},"Ü":{"ha":709,"x_min":0,"x_max":0,"o":"m 570 0 b 625 46 606 0 625 16 l 638 928 b 592 974 638 958 623 974 l 459 974 b 408 925 425 974 408 958 l 432 420 b 342 323 405 355 375 323 b 247 449 291 323 259 365 b 226 922 237 531 229 688 b 207 947 226 939 220 947 l 90 947 b 71 930 77 947 71 941 b 60 300 64 532 60 322 b 267 30 60 120 129 30 b 440 165 334 30 392 75 l 443 165 l 448 79 b 503 0 450 26 469 0 z m 176 1184 b 132 1131 146 1184 132 1166 l 132 1069 b 176 1016 132 1034 146 1016 l 254 1016 b 298 1069 283 1016 298 1034 l 298 1131 b 254 1184 298 1166 283 1184 z m 409 1184 b 366 1131 380 1184 366 1166 l 366 1069 b 409 1016 366 1034 380 1016 l 488 1016 b 531 1069 517 1016 531 1034 l 531 1131 b 488 1184 531 1166 517 1184 z "},"Ý":{"ha":684,"x_min":0,"x_max":0,"o":"m 371 -16 b 470 11 399 -16 433 -7 b 612 323 565 56 612 161 b 625 928 612 351 616 553 b 579 974 625 958 610 974 l 446 974 b 395 925 412 974 395 958 l 419 594 b 330 528 392 550 362 528 b 235 614 278 528 247 556 b 212 922 221 682 214 785 b 193 947 212 939 205 947 l 76 947 b 57 930 63 947 57 941 b 51 745 56 895 54 833 b 47 552 48 656 47 592 b 233 326 47 401 109 326 b 427 419 314 326 378 357 b 429 357 428 397 429 376 b 368 160 429 226 408 160 b 310 185 351 160 331 168 b 227 233 269 217 241 233 b 188 214 211 233 198 227 b 135 119 153 167 135 135 b 182 52 135 100 151 77 b 371 -16 237 7 300 -16 z m 380 1181 b 353 1171 367 1181 358 1178 b 271 1043 298 1095 271 1052 b 298 1016 271 1025 280 1016 l 363 1016 b 390 1033 373 1016 382 1021 b 467 1152 441 1102 467 1141 b 431 1181 467 1171 455 1181 z "},"Þ":{"ha":689,"x_min":0,"x_max":0,"o":"m 269 911 b 224 960 269 944 254 960 l 96 960 b 53 914 67 960 53 945 b 73 -57 66 358 73 35 b 130 -136 73 -109 92 -136 l 198 -136 b 252 -76 234 -136 252 -116 b 255 260 254 101 255 213 b 377 236 296 244 336 236 b 595 321 460 236 532 264 b 692 537 660 378 692 450 b 595 760 692 627 660 702 b 396 827 545 805 478 827 b 265 810 353 827 310 822 z "},"ß":{"ha":720,"x_min":0,"x_max":0,"o":"m 448 -16 b 605 22 511 -16 564 -3 b 709 231 674 65 709 134 b 614 407 709 306 677 364 b 462 562 513 475 462 527 b 481 663 462 583 468 616 b 505 792 497 724 505 767 b 492 863 505 819 500 842 b 310 993 452 949 391 993 b 75 725 167 993 88 903 b 58 49 69 627 64 402 b 112 0 58 16 76 0 l 210 0 b 261 62 244 0 261 21 b 448 -16 315 10 377 -16 z m 470 168 b 412 203 431 168 412 180 b 366 293 412 263 397 293 l 256 288 b 250 675 252 510 250 640 b 299 817 250 770 267 817 b 313 797 308 817 313 810 b 307 753 313 789 311 775 b 280 556 289 658 280 592 b 386 369 280 498 315 436 b 527 212 480 281 527 229 b 470 168 527 182 508 168 z "},"à":{"ha":594,"x_min":0,"x_max":0,"o":"m 488 3 b 540 49 523 3 540 18 b 531 548 534 322 531 489 b 468 605 531 586 510 605 l 423 605 b 361 583 393 605 372 597 b 271 602 323 596 293 602 b 98 505 205 602 147 570 b 24 279 49 439 24 364 b 77 91 24 206 42 143 b 217 11 111 37 157 11 b 336 68 261 11 301 30 b 391 3 340 24 358 3 z m 187 810 b 152 780 163 810 152 800 b 229 661 152 770 178 730 b 256 644 237 650 245 644 l 320 644 b 347 671 338 644 347 653 b 266 799 347 680 320 723 b 239 810 260 806 252 810 z "},"á":{"ha":594,"x_min":0,"x_max":0,"o":"m 488 3 b 540 49 523 3 540 18 b 531 548 534 322 531 489 b 468 605 531 586 510 605 l 423 605 b 361 583 393 605 372 597 b 271 602 323 596 293 602 b 98 505 205 602 147 570 b 24 279 49 439 24 364 b 77 91 24 206 42 143 b 217 11 111 37 157 11 b 336 68 261 11 301 30 b 391 3 340 24 358 3 z m 326 810 b 298 799 313 810 304 806 b 217 671 244 723 217 680 b 244 644 217 653 226 644 l 309 644 b 336 661 319 644 328 650 b 412 780 387 730 412 770 b 377 810 412 800 401 810 z "},"â":{"ha":594,"x_min":0,"x_max":0,"o":"m 488 3 b 540 49 523 3 540 18 b 531 548 534 322 531 489 b 468 605 531 586 510 605 l 423 605 b 361 583 393 605 372 597 b 271 602 323 596 293 602 b 98 505 205 602 147 570 b 24 279 49 439 24 364 b 77 91 24 206 42 143 b 217 11 111 37 157 11 b 336 68 261 11 301 30 b 391 3 340 24 358 3 z m 391 644 b 410 671 404 644 410 653 b 338 787 410 681 386 720 b 301 810 328 802 315 810 l 270 810 b 228 785 254 810 239 802 b 155 671 179 719 155 681 b 174 644 155 653 161 644 l 252 644 b 281 671 265 644 275 653 b 315 644 294 653 306 644 z "},"ã":{"ha":594,"x_min":0,"x_max":0,"o":"m 488 3 b 540 49 523 3 540 18 b 531 548 534 322 531 489 b 468 605 531 586 510 605 l 423 605 b 361 583 393 605 372 597 b 271 602 323 596 293 602 b 98 505 205 602 147 570 b 24 279 49 439 24 364 b 77 91 24 206 42 143 b 217 11 111 37 157 11 b 336 68 261 11 301 30 b 391 3 340 24 358 3 z m 370 810 b 335 772 347 810 335 797 b 227 807 282 795 246 807 b 158 774 200 807 177 796 b 123 674 135 748 123 715 b 151 644 123 654 132 644 l 210 644 b 229 671 223 644 229 653 l 229 682 b 351 647 296 659 336 647 b 417 683 379 647 401 659 b 441 780 433 705 441 738 b 406 810 441 800 429 810 z "},"ä":{"ha":594,"x_min":0,"x_max":0,"o":"m 488 3 b 540 49 523 3 540 18 b 531 548 534 322 531 489 b 468 605 531 586 510 605 l 423 605 b 361 583 393 605 372 597 b 271 602 323 596 293 602 b 98 505 205 602 147 570 b 24 279 49 439 24 364 b 77 91 24 206 42 143 b 217 11 111 37 157 11 b 336 68 261 11 301 30 b 391 3 340 24 358 3 z m 126 812 b 83 760 97 812 83 795 l 83 697 b 126 644 83 662 97 644 l 205 644 b 248 697 234 644 248 662 l 248 760 b 205 812 248 795 234 812 z m 359 812 b 316 760 330 812 316 795 l 316 697 b 359 644 316 662 330 644 l 438 644 b 481 697 467 644 481 662 l 481 760 b 438 812 481 795 467 812 z "},"å":{"ha":594,"x_min":0,"x_max":0,"o":"m 488 3 b 540 49 523 3 540 18 b 531 548 534 322 531 489 b 468 605 531 586 510 605 l 423 605 b 361 583 393 605 372 597 b 271 602 323 596 293 602 b 98 505 205 602 147 570 b 24 279 49 439 24 364 b 77 91 24 206 42 143 b 217 11 111 37 157 11 b 336 68 261 11 301 30 b 391 3 340 24 358 3 z m 282 624 b 359 656 313 624 338 635 b 391 734 380 678 391 704 b 359 812 391 765 380 791 b 282 844 338 833 313 844 b 205 812 252 844 227 833 b 174 734 184 791 174 765 b 205 656 174 704 184 678 b 282 624 227 635 252 624 z "},"æ":{"ha":922,"x_min":0,"x_max":0,"o":"m 460 517 b 279 600 414 572 354 600 b 78 534 195 600 127 578 b 0 385 26 488 0 439 b 73 334 0 351 24 334 l 138 334 b 198 380 178 334 198 349 b 260 426 198 410 219 426 b 323 396 287 426 307 416 b 288 382 318 396 307 391 b 68 146 141 314 68 235 b 135 23 68 98 90 57 b 282 -16 172 -3 220 -16 b 453 73 346 -16 403 14 l 461 83 b 642 0 507 28 567 0 b 843 66 726 0 793 22 b 922 214 895 111 922 161 b 848 266 922 249 897 266 l 783 266 b 724 220 743 266 724 250 b 661 174 724 189 703 174 b 599 203 635 174 614 184 b 634 217 603 203 614 208 b 854 453 781 286 854 364 b 786 576 854 501 831 543 b 640 616 749 603 701 616 b 468 527 575 616 518 586 l 460 517 z "},"ç":{"ha":569,"x_min":0,"x_max":0,"o":"m 228 1 b 197 -48 208 -22 197 -38 b 211 -77 197 -68 202 -77 b 279 -103 256 -77 279 -86 b 227 -135 279 -124 262 -135 b 162 -193 184 -135 162 -155 b 216 -267 162 -243 180 -267 b 290 -254 243 -267 268 -263 b 406 -110 367 -222 406 -174 b 340 -4 406 -62 385 -26 b 332 1 337 -2 334 -1 b 479 87 398 9 448 39 b 542 244 521 149 542 201 b 504 296 542 272 529 289 b 393 307 480 302 444 306 b 347 269 362 307 347 294 b 281 163 347 198 325 163 b 203 300 229 163 203 208 b 287 458 203 406 231 458 b 321 405 309 458 321 441 b 363 382 321 390 335 382 l 479 382 b 534 437 515 382 534 401 b 468 581 534 490 512 538 b 300 643 422 623 367 643 b 100 528 224 643 157 604 b 26 293 51 460 26 382 b 43 182 27 260 33 223 b 228 1 69 77 131 17 z "},"è":{"ha":556,"x_min":0,"x_max":0,"o":"m 277 0 b 478 66 361 0 428 22 b 556 214 530 111 556 161 b 483 266 556 249 532 266 l 418 266 b 358 220 378 266 358 250 b 296 174 358 189 337 174 b 233 203 269 174 249 184 b 269 217 237 203 249 208 b 488 453 415 286 488 364 b 420 576 488 501 466 543 b 274 616 384 603 335 616 b 103 527 210 616 153 586 b 24 290 51 465 24 386 b 86 96 24 216 45 151 b 277 0 133 32 196 0 z m 195 810 b 160 780 172 810 160 800 b 237 661 160 770 186 730 b 264 644 245 650 254 644 l 328 644 b 355 671 347 644 355 653 b 274 799 355 680 328 723 b 247 810 269 806 260 810 z "},"é":{"ha":556,"x_min":0,"x_max":0,"o":"m 277 0 b 478 66 361 0 428 22 b 556 214 530 111 556 161 b 483 266 556 249 532 266 l 418 266 b 358 220 378 266 358 250 b 296 174 358 189 337 174 b 233 203 269 174 249 184 b 269 217 237 203 249 208 b 488 453 415 286 488 364 b 420 576 488 501 466 543 b 274 616 384 603 335 616 b 103 527 210 616 153 586 b 24 290 51 465 24 386 b 86 96 24 216 45 151 b 277 0 133 32 196 0 z m 334 810 b 307 799 321 810 312 806 b 225 671 252 723 225 680 b 252 644 225 653 234 644 l 317 644 b 344 661 327 644 336 650 b 420 780 395 730 420 770 b 385 810 420 800 409 810 z "},"ê":{"ha":556,"x_min":0,"x_max":0,"o":"m 277 0 b 478 66 361 0 428 22 b 556 214 530 111 556 161 b 483 266 556 249 532 266 l 418 266 b 358 220 378 266 358 250 b 296 174 358 189 337 174 b 233 203 269 174 249 184 b 269 217 237 203 249 208 b 488 453 415 286 488 364 b 420 576 488 501 466 543 b 274 616 384 603 335 616 b 103 527 210 616 153 586 b 24 290 51 465 24 386 b 86 96 24 216 45 151 b 277 0 133 32 196 0 z m 399 644 b 418 671 412 644 418 653 b 347 787 418 681 394 720 b 309 810 336 802 323 810 l 278 810 b 236 785 262 810 248 802 b 163 671 187 719 163 681 b 182 644 163 653 169 644 l 260 644 b 289 671 273 644 283 653 b 323 644 302 653 314 644 z "},"ë":{"ha":556,"x_min":0,"x_max":0,"o":"m 277 0 b 478 66 361 0 428 22 b 556 214 530 111 556 161 b 483 266 556 249 532 266 l 418 266 b 358 220 378 266 358 250 b 296 174 358 189 337 174 b 233 203 269 174 249 184 b 269 217 237 203 249 208 b 488 453 415 286 488 364 b 420 576 488 501 466 543 b 274 616 384 603 335 616 b 103 527 210 616 153 586 b 24 290 51 465 24 386 b 86 96 24 216 45 151 b 277 0 133 32 196 0 z m 134 812 b 91 760 105 812 91 795 l 91 697 b 134 644 91 662 105 644 l 213 644 b 256 697 242 644 256 662 l 256 760 b 213 812 256 795 242 812 z m 368 812 b 324 760 338 812 324 795 l 324 697 b 368 644 324 662 338 644 l 446 644 b 490 697 475 644 490 662 l 490 760 b 446 812 490 795 475 812 z "},"ì":{"ha":308,"x_min":0,"x_max":0,"o":"m 202 3 b 253 34 236 3 253 13 l 244 536 b 178 602 243 581 221 602 l 134 602 b 64 553 89 602 65 586 l 52 41 b 104 3 52 16 69 3 z m 57 810 b 22 780 33 810 22 800 b 98 661 22 770 47 730 b 125 644 106 650 115 644 l 190 644 b 217 671 208 644 217 653 b 136 799 217 680 190 723 b 109 810 130 806 121 810 z "},"í":{"ha":308,"x_min":0,"x_max":0,"o":"m 202 3 b 253 34 236 3 253 13 l 244 536 b 178 602 243 581 221 602 l 134 602 b 64 553 89 602 65 586 l 52 41 b 104 3 52 16 69 3 z m 195 810 b 168 799 182 810 174 806 b 87 671 114 723 87 680 b 114 644 87 653 96 644 l 178 644 b 205 661 189 644 197 650 b 282 780 256 730 282 770 b 247 810 282 800 271 810 z "},"î":{"ha":308,"x_min":0,"x_max":0,"o":"m 202 3 b 253 34 236 3 253 13 l 244 536 b 178 602 243 581 221 602 l 134 602 b 64 553 89 602 65 586 l 52 41 b 104 3 52 16 69 3 z m 260 644 b 279 671 273 644 279 653 b 208 787 279 681 256 720 b 171 810 198 802 185 810 l 140 810 b 98 785 123 810 109 802 b 24 671 49 719 24 681 b 43 644 24 653 31 644 l 122 644 b 151 671 135 644 144 653 b 184 644 164 653 176 644 z "},"ï":{"ha":308,"x_min":0,"x_max":0,"o":"m 202 3 b 253 34 236 3 253 13 l 244 536 b 178 602 243 581 221 602 l 134 602 b 64 553 89 602 65 586 l 52 41 b 104 3 52 16 69 3 z m -4 812 b -47 760 -33 812 -47 795 l -47 697 b -4 644 -47 662 -33 644 l 75 644 b 118 697 104 644 118 662 l 118 760 b 75 812 118 795 104 812 z m 229 812 b 186 760 200 812 186 795 l 186 697 b 229 644 186 662 200 644 l 308 644 b 351 697 337 644 351 662 l 351 760 b 308 812 351 795 337 812 z "},"ð":{"ha":615,"x_min":0,"x_max":0,"o":"m 588 688 b 650 737 629 688 650 705 l 650 819 b 583 867 650 851 628 867 l 538 868 b 538 906 538 887 538 900 b 486 960 538 942 521 960 l 413 960 b 361 917 378 960 361 946 b 361 871 361 901 361 886 l 260 873 b 208 821 225 873 208 856 l 208 743 b 265 686 208 705 227 686 l 357 686 b 356 570 357 630 356 591 b 275 589 324 583 297 589 b 114 511 215 589 161 563 b 25 258 55 446 25 361 b 84 66 25 184 45 119 b 234 -3 118 20 168 -3 b 348 71 273 -3 311 22 l 348 35 b 408 -14 348 3 368 -14 l 497 -14 b 551 33 533 -14 551 2 b 541 688 547 323 543 542 z "},"ñ":{"ha":652,"x_min":0,"x_max":0,"o":"m 207 16 b 258 71 241 16 258 35 l 258 198 b 356 347 290 298 323 347 b 446 76 416 347 446 257 b 475 41 446 52 456 41 l 573 41 b 603 79 593 41 603 54 b 608 277 603 96 605 162 l 608 300 b 405 616 608 511 541 616 b 250 475 345 616 293 569 b 248 567 248 502 248 532 b 182 632 248 610 226 632 l 136 632 b 71 554 93 632 71 606 b 58 65 71 475 62 303 b 109 16 58 33 75 16 z m 421 810 b 386 772 397 810 386 797 b 277 807 333 795 297 807 b 209 774 251 807 228 796 b 174 674 186 748 174 715 b 201 644 174 654 183 644 l 261 644 b 280 671 274 644 280 653 l 280 682 b 402 647 347 659 387 647 b 468 683 430 647 452 659 b 492 780 484 705 492 738 b 456 810 492 800 480 810 z "},"ò":{"ha":626,"x_min":0,"x_max":0,"o":"m 322 621 b 96 518 235 621 159 587 b 22 315 47 463 22 395 b 86 113 22 241 43 174 b 307 -8 144 32 217 -8 b 537 109 398 -8 475 31 b 604 304 581 164 604 229 b 551 486 604 371 586 432 b 322 621 492 576 416 621 z m 218 810 b 182 780 194 810 182 800 b 259 661 182 770 208 730 b 286 644 267 650 276 644 l 351 644 b 378 671 369 644 378 653 b 296 799 378 680 351 723 b 269 810 291 806 282 810 z "},"ó":{"ha":626,"x_min":0,"x_max":0,"o":"m 322 621 b 96 518 235 621 159 587 b 22 315 47 463 22 395 b 86 113 22 241 43 174 b 307 -8 144 32 217 -8 b 537 109 398 -8 475 31 b 604 304 581 164 604 229 b 551 486 604 371 586 432 b 322 621 492 576 416 621 z m 356 810 b 329 799 343 810 334 806 b 248 671 275 723 248 680 b 275 644 248 653 256 644 l 339 644 b 366 661 349 644 358 650 b 443 780 417 730 443 770 b 408 810 443 800 431 810 z "},"ô":{"ha":626,"x_min":0,"x_max":0,"o":"m 322 621 b 96 518 235 621 159 587 b 22 315 47 463 22 395 b 86 113 22 241 43 174 b 307 -8 144 32 217 -8 b 537 109 398 -8 475 31 b 604 304 581 164 604 229 b 551 486 604 371 586 432 b 322 621 492 576 416 621 z m 421 644 b 440 671 434 644 440 653 b 369 787 440 681 416 720 b 332 810 359 802 346 810 l 300 810 b 258 785 284 810 270 802 b 185 671 210 719 185 681 b 204 644 185 653 191 644 l 283 644 b 311 671 296 644 305 653 b 345 644 325 653 336 644 z "},"õ":{"ha":626,"x_min":0,"x_max":0,"o":"m 322 621 b 96 518 235 621 159 587 b 22 315 47 463 22 395 b 86 113 22 241 43 174 b 307 -8 144 32 217 -8 b 537 109 398 -8 475 31 b 604 304 581 164 604 229 b 551 486 604 371 586 432 b 322 621 492 576 416 621 z m 401 810 b 366 772 377 810 366 797 b 257 807 313 795 277 807 b 189 774 231 807 208 796 b 154 674 165 748 154 715 b 181 644 154 654 163 644 l 241 644 b 260 671 254 644 260 653 l 260 682 b 382 647 326 659 367 647 b 448 683 410 647 432 659 b 471 780 463 705 471 738 b 436 810 471 800 460 810 z "},"ö":{"ha":626,"x_min":0,"x_max":0,"o":"m 322 621 b 96 518 235 621 159 587 b 22 315 47 463 22 395 b 86 113 22 241 43 174 b 307 -8 144 32 217 -8 b 537 109 398 -8 475 31 b 604 304 581 164 604 229 b 551 486 604 371 586 432 b 322 621 492 576 416 621 z m 157 812 b 113 760 127 812 113 795 l 113 697 b 157 644 113 662 127 644 l 235 644 b 279 697 264 644 279 662 l 279 760 b 235 812 279 795 264 812 z m 390 812 b 347 760 361 812 347 795 l 347 697 b 390 644 347 662 361 644 l 469 644 b 512 697 498 644 512 662 l 512 760 b 469 812 512 795 498 812 z "},"÷":{"ha":456,"x_min":0,"x_max":0,"o":"m 134 382 b 387 385 259 385 343 385 b 449 434 428 385 449 401 l 449 515 b 381 564 449 548 427 564 l 58 570 b 7 518 24 570 7 553 l 7 439 b 64 382 7 401 26 382 z m 182 363 b 130 300 147 363 130 342 l 130 227 b 182 165 130 186 147 165 l 274 165 b 326 227 309 165 326 186 l 326 300 b 274 363 326 342 309 363 z m 182 787 b 130 725 147 787 130 766 l 130 652 b 182 589 130 610 147 589 l 274 589 b 326 652 309 589 326 610 l 326 725 b 274 787 326 766 309 787 z "},"ø":{"ha":626,"x_min":0,"x_max":0,"o":"m 144 49 b 106 -32 132 22 119 -4 b 100 -56 102 -42 100 -50 b 116 -78 100 -67 105 -75 l 163 -93 b 183 -73 169 -93 176 -86 b 222 5 192 -56 205 -30 b 307 -8 248 -3 276 -8 b 537 109 398 -8 475 31 b 604 304 581 164 604 229 b 551 486 604 371 586 432 b 480 566 530 519 506 545 b 506 624 488 585 497 604 b 520 669 515 645 520 661 b 505 692 520 681 515 688 b 465 703 479 699 467 703 b 448 691 459 703 454 699 b 407 607 446 688 432 661 b 322 621 380 616 353 621 b 96 518 235 621 159 587 b 22 315 47 463 22 395 b 86 113 22 241 43 174 b 144 49 104 87 123 66 z "},"ù":{"ha":654,"x_min":0,"x_max":0,"o":"m 525 3 b 585 75 562 3 582 27 b 598 570 589 149 593 314 b 536 618 598 602 577 618 l 460 618 b 397 564 418 618 397 600 b 389 442 397 509 395 469 b 300 288 366 339 336 288 b 240 353 276 288 256 309 b 210 559 220 403 210 471 b 175 594 210 583 199 594 l 96 594 b 53 559 67 594 53 583 b 50 460 53 545 52 511 b 47 345 47 408 47 370 b 53 247 47 307 49 274 b 240 19 76 95 138 19 b 406 160 309 19 364 66 b 408 65 408 130 408 98 b 463 3 408 24 427 3 z m 228 810 b 193 780 204 810 193 800 b 269 661 193 770 218 730 b 296 644 277 650 286 644 l 361 644 b 388 671 379 644 388 653 b 307 799 388 680 361 723 b 279 810 301 806 292 810 z "},"ú":{"ha":654,"x_min":0,"x_max":0,"o":"m 525 3 b 585 75 562 3 582 27 b 598 570 589 149 593 314 b 536 618 598 602 577 618 l 460 618 b 397 564 418 618 397 600 b 389 442 397 509 395 469 b 300 288 366 339 336 288 b 240 353 276 288 256 309 b 210 559 220 403 210 471 b 175 594 210 583 199 594 l 96 594 b 53 559 67 594 53 583 b 50 460 53 545 52 511 b 47 345 47 408 47 370 b 53 247 47 307 49 274 b 240 19 76 95 138 19 b 406 160 309 19 364 66 b 408 65 408 130 408 98 b 463 3 408 24 427 3 z m 366 810 b 339 799 353 810 345 806 b 258 671 285 723 258 680 b 285 644 258 653 267 644 l 349 644 b 376 661 359 644 368 650 b 453 780 427 730 453 770 b 418 810 453 800 441 810 z "},"û":{"ha":654,"x_min":0,"x_max":0,"o":"m 525 3 b 585 75 562 3 582 27 b 598 570 589 149 593 314 b 536 618 598 602 577 618 l 460 618 b 397 564 418 618 397 600 b 389 442 397 509 395 469 b 300 288 366 339 336 288 b 240 353 276 288 256 309 b 210 559 220 403 210 471 b 175 594 210 583 199 594 l 96 594 b 53 559 67 594 53 583 b 50 460 53 545 52 511 b 47 345 47 408 47 370 b 53 247 47 307 49 274 b 240 19 76 95 138 19 b 406 160 309 19 364 66 b 408 65 408 130 408 98 b 463 3 408 24 427 3 z m 431 644 b 450 671 444 644 450 653 b 379 787 450 681 427 720 b 342 810 369 802 356 810 l 311 810 b 269 785 294 810 280 802 b 195 671 220 719 195 681 b 214 644 195 653 201 644 l 293 644 b 321 671 306 644 315 653 b 355 644 335 653 347 644 z "},"ü":{"ha":654,"x_min":0,"x_max":0,"o":"m 525 3 b 585 75 562 3 582 27 b 598 570 589 149 593 314 b 536 618 598 602 577 618 l 460 618 b 397 564 418 618 397 600 b 389 442 397 509 395 469 b 300 288 366 339 336 288 b 240 353 276 288 256 309 b 210 559 220 403 210 471 b 175 594 210 583 199 594 l 96 594 b 53 559 67 594 53 583 b 50 460 53 545 52 511 b 47 345 47 408 47 370 b 53 247 47 307 49 274 b 240 19 76 95 138 19 b 406 160 309 19 364 66 b 408 65 408 130 408 98 b 463 3 408 24 427 3 z m 167 812 b 123 760 138 812 123 795 l 123 697 b 167 644 123 662 138 644 l 245 644 b 289 697 275 644 289 662 l 289 760 b 245 812 289 795 275 812 z m 400 812 b 357 760 371 812 357 795 l 357 697 b 400 644 357 662 371 644 l 479 644 b 522 697 508 644 522 662 l 522 760 b 479 812 522 795 508 812 z "},"ý":{"ha":636,"x_min":0,"x_max":0,"o":"m 313 -309 b 435 -279 355 -309 396 -299 b 561 -41 511 -241 553 -161 b 575 568 567 57 572 260 b 511 618 575 602 553 618 l 437 618 b 372 570 394 618 372 602 b 378 393 372 521 378 451 b 296 296 378 328 351 296 b 228 347 262 296 239 313 b 212 545 218 382 212 448 b 177 602 212 583 201 602 l 90 602 b 50 578 63 602 50 594 l 50 347 b 220 27 50 134 106 27 b 383 122 292 27 347 59 l 385 -7 b 334 -133 385 -91 368 -133 b 241 -81 320 -133 289 -115 b 199 -60 221 -66 208 -60 b 134 -95 172 -60 151 -71 b 98 -171 110 -130 98 -155 b 145 -242 98 -196 117 -218 b 313 -309 197 -287 253 -309 z m 356 810 b 329 799 343 810 334 806 b 248 671 275 723 248 680 b 275 644 248 653 256 644 l 339 644 b 366 661 349 644 358 650 b 443 780 417 730 443 770 b 408 810 443 800 431 810 z "},"þ":{"ha":616,"x_min":0,"x_max":0,"o":"m 218 -316 b 264 -273 249 -316 264 -302 b 259 72 264 -212 262 -97 b 338 56 292 61 319 56 b 509 146 403 56 460 85 b 587 380 562 209 587 287 b 571 492 587 423 582 460 b 389 647 537 595 477 647 b 251 552 337 647 291 615 l 251 889 b 197 943 251 925 233 943 l 129 943 b 75 897 93 943 75 928 l 61 -270 b 113 -316 61 -300 78 -316 l 218 -316 z "},"ÿ":{"ha":636,"x_min":0,"x_max":0,"o":"m 313 -309 b 435 -279 355 -309 396 -299 b 561 -41 511 -241 553 -161 b 575 568 567 57 572 260 b 511 618 575 602 553 618 l 437 618 b 372 570 394 618 372 602 b 378 393 372 521 378 451 b 296 296 378 328 351 296 b 228 347 262 296 239 313 b 212 545 218 382 212 448 b 177 602 212 583 201 602 l 90 602 b 50 578 63 602 50 594 l 50 347 b 220 27 50 134 106 27 b 383 122 292 27 347 59 l 385 -7 b 334 -133 385 -91 368 -133 b 241 -81 320 -133 289 -115 b 199 -60 221 -66 208 -60 b 134 -95 172 -60 151 -71 b 98 -171 110 -130 98 -155 b 145 -242 98 -196 117 -218 b 313 -309 197 -287 253 -309 z m 157 812 b 113 760 127 812 113 795 l 113 697 b 157 644 113 662 127 644 l 235 644 b 279 697 264 644 279 662 l 279 760 b 235 812 279 795 264 812 z m 390 812 b 347 760 361 812 347 795 l 347 697 b 390 644 347 662 361 644 l 469 644 b 512 697 498 644 512 662 l 512 760 b 469 812 512 795 498 812 z "},"ı":{"ha":308,"x_min":0,"x_max":0,"o":"m 202 3 b 253 34 236 3 253 13 l 244 536 b 178 602 243 581 221 602 l 134 602 b 64 553 89 602 65 586 l 52 41 b 104 3 52 16 69 3 l 202 3 z "},"ˆ":{"ha":323,"x_min":0,"x_max":0,"o":"m 270 644 b 289 671 283 644 289 653 b 218 787 289 681 265 720 b 180 810 208 802 195 810 l 149 810 b 107 785 133 810 119 802 b 34 671 58 719 34 681 b 53 644 34 653 40 644 l 132 644 b 160 671 144 644 154 653 b 194 644 174 653 185 644 l 270 644 z "},"ˇ":{"ha":323,"x_min":0,"x_max":0,"o":"m 194 810 b 160 783 185 810 174 801 b 132 810 154 801 144 810 l 53 810 b 34 783 40 810 34 801 b 107 669 34 773 58 735 b 149 644 119 652 133 644 l 180 644 b 218 667 195 644 208 652 b 289 783 265 734 289 773 b 270 810 289 801 283 810 z "},"ˉ":{"ha":368,"x_min":0,"x_max":0,"o":"m 73 688 b 250 691 127 688 186 689 b 334 745 306 693 334 711 l 334 819 b 310 864 334 847 326 862 b 79 878 231 873 153 878 b 34 824 49 878 34 860 l 34 741 b 73 688 34 706 47 688 z "},"˘":{"ha":301,"x_min":0,"x_max":0,"o":"m 77 812 b 34 783 48 812 34 802 b 159 644 34 690 75 644 b 267 783 231 644 267 690 b 232 812 267 802 256 812 l 197 812 b 164 799 175 812 164 808 b 153 766 164 777 161 766 b 138 798 143 766 138 777 b 107 812 138 808 128 812 l 77 812 z "},"˙":{"ha":233,"x_min":0,"x_max":0,"o":"m 77 812 b 34 760 48 812 34 795 l 34 697 b 77 644 34 662 48 644 l 156 644 b 199 697 185 644 199 662 l 199 760 b 156 812 199 795 185 812 l 77 812 z "},"˚":{"ha":265,"x_min":0,"x_max":0,"o":"m 132 624 b 209 656 163 624 188 635 b 241 734 230 678 241 704 b 209 812 241 765 230 791 b 132 844 188 833 163 844 b 56 812 102 844 77 833 b 24 734 35 791 24 765 b 56 656 24 704 35 678 b 132 624 77 635 102 624 z "},"˛":{"ha":303,"x_min":0,"x_max":0,"o":"m 148 -213 b 243 -179 191 -213 222 -201 b 269 -118 260 -159 269 -139 b 245 -99 269 -105 261 -99 b 189 -113 229 -99 205 -113 b 167 -85 174 -113 167 -104 b 209 1 167 -63 181 -35 b 229 46 222 18 229 33 b 194 64 229 58 217 64 b 142 53 176 64 159 60 b 34 -107 70 19 34 -35 b 64 -178 34 -131 44 -154 b 148 -213 85 -201 113 -213 z "},"˜":{"ha":385,"x_min":0,"x_max":0,"o":"m 281 810 b 245 772 257 810 245 797 b 137 807 193 795 157 807 b 68 774 111 807 87 796 b 34 674 45 748 34 715 b 61 644 34 654 43 644 l 121 644 b 140 671 134 644 140 653 l 140 682 b 262 647 206 659 247 647 b 328 683 290 647 312 659 b 351 780 343 705 351 738 b 316 810 351 800 340 810 l 281 810 z "},"˝":{"ha":458,"x_min":0,"x_max":0,"o":"m 142 810 b 115 799 130 810 121 806 b 34 671 61 723 34 680 b 61 644 34 653 43 644 l 125 644 b 153 661 136 644 144 650 b 229 780 203 730 229 770 b 194 810 229 800 218 810 z m 338 810 b 311 799 325 810 316 806 b 229 671 256 723 229 680 b 256 644 229 653 238 644 l 321 644 b 348 661 331 644 340 650 b 425 780 399 730 425 770 b 389 810 425 800 413 810 z "},"–":{"ha":746,"x_min":0,"x_max":0,"o":"m 605 404 b 117 410 543 404 380 406 b 34 339 62 410 34 386 l 34 282 b 127 220 34 241 65 220 b 332 222 157 220 225 220 b 581 225 439 224 522 225 b 712 288 668 225 712 246 l 712 350 b 605 404 712 386 676 404 z "},"—":{"ha":1085,"x_min":0,"x_max":0,"o":"m 890 404 b 158 410 798 404 553 406 b 34 339 75 410 34 386 l 34 282 b 173 220 34 241 80 220 b 481 222 218 220 321 220 b 854 225 642 224 766 225 b 1051 288 985 225 1051 246 l 1051 350 b 890 404 1051 386 998 404 z "},"‘":{"ha":266,"x_min":0,"x_max":0,"o":"m 123 949 b 78 919 103 949 88 939 b 34 781 49 859 34 812 l 34 684 b 88 632 34 649 52 632 l 178 632 b 232 684 214 632 232 649 l 232 781 b 197 825 232 799 220 813 b 210 898 205 859 210 883 b 159 949 210 932 193 949 l 123 949 z "},"’":{"ha":266,"x_min":0,"x_max":0,"o":"m 142 632 b 188 663 163 632 178 642 b 232 800 217 723 232 769 l 232 898 b 178 949 232 932 214 949 l 88 949 b 34 898 52 949 34 932 l 34 800 b 69 757 34 783 45 768 b 56 684 60 723 56 699 b 107 632 56 649 73 632 l 142 632 z "},"‚":{"ha":266,"x_min":0,"x_max":0,"o":"m 142 -159 b 188 -128 163 -159 178 -149 b 232 9 217 -68 232 -22 l 232 107 b 178 159 232 142 214 159 l 88 159 b 34 107 52 159 34 142 l 34 9 b 69 -34 34 -8 45 -22 b 56 -107 60 -68 56 -92 b 107 -159 56 -142 73 -159 l 142 -159 z "},"“":{"ha":543,"x_min":0,"x_max":0,"o":"m 123 949 b 78 919 103 949 88 939 b 34 781 49 859 34 812 l 34 684 b 88 632 34 649 52 632 l 178 632 b 232 684 214 632 232 649 l 232 781 b 197 825 232 799 220 813 b 210 898 205 859 210 883 b 159 949 210 932 193 949 z m 401 949 b 355 919 380 949 366 939 b 311 781 326 859 311 812 l 311 684 b 366 632 311 649 330 632 l 455 632 b 509 684 491 632 509 649 l 509 781 b 474 825 509 799 498 813 b 488 898 483 859 488 883 b 436 949 488 932 471 949 z "},"”":{"ha":543,"x_min":0,"x_max":0,"o":"m 142 632 b 188 663 163 632 178 642 b 232 800 217 723 232 769 l 232 898 b 178 949 232 932 214 949 l 88 949 b 34 898 52 949 34 932 l 34 800 b 69 757 34 783 45 768 b 56 684 60 723 56 699 b 107 632 56 649 73 632 z m 420 632 b 465 663 440 632 455 642 b 509 800 494 723 509 769 l 509 898 b 455 949 509 932 491 949 l 366 949 b 311 898 330 949 311 932 l 311 800 b 347 757 311 783 323 768 b 333 684 338 723 333 699 b 385 632 333 649 350 632 z "},"„":{"ha":543,"x_min":0,"x_max":0,"o":"m 142 -159 b 188 -128 163 -159 178 -149 b 232 9 217 -68 232 -22 l 232 107 b 178 159 232 142 214 159 l 88 159 b 34 107 52 159 34 142 l 34 9 b 69 -34 34 -8 45 -22 b 56 -107 60 -68 56 -92 b 107 -159 56 -142 73 -159 z m 420 -159 b 465 -128 440 -159 455 -149 b 509 9 494 -68 509 -22 l 509 107 b 455 159 509 142 491 159 l 366 159 b 311 107 330 159 311 142 l 311 9 b 347 -34 311 -8 323 -22 b 333 -107 338 -68 333 -92 b 385 -159 333 -142 350 -159 z "},"†":{"ha":510,"x_min":0,"x_max":0,"o":"m 414 656 b 476 705 455 656 476 672 l 476 786 b 408 835 476 819 454 835 l 343 836 l 340 895 b 289 960 338 939 321 960 l 210 960 b 166 904 182 960 168 941 l 163 839 l 85 840 b 34 789 51 840 34 823 l 34 710 b 91 653 34 672 53 653 l 154 654 l 123 33 b 175 -14 123 2 140 -14 l 327 -14 b 381 36 363 -14 381 3 l 352 655 z "},"‡":{"ha":510,"x_min":0,"x_max":0,"o":"m 85 840 b 34 789 51 840 34 823 l 34 710 b 91 653 34 672 53 653 l 154 654 l 137 311 l 85 311 b 34 260 51 311 34 294 l 34 181 b 91 124 34 143 53 124 l 128 124 l 123 33 b 175 -14 123 2 140 -14 l 327 -14 b 381 36 363 -14 381 3 l 377 127 l 414 127 b 476 176 455 127 476 143 l 476 257 b 408 306 476 290 454 306 l 368 307 l 352 655 l 414 656 b 476 705 455 656 476 672 l 476 786 b 408 835 476 819 454 835 l 343 836 l 340 895 b 289 960 338 939 321 960 l 210 960 b 166 904 182 960 168 941 l 163 839 z "},"•":{"ha":456,"x_min":0,"x_max":0,"o":"m 78 684 b -24 559 9 684 -24 642 l -24 414 b 78 290 -24 331 9 290 l 262 290 b 364 414 330 290 364 331 l 364 559 b 262 684 364 642 330 684 l 78 684 z "},"…":{"ha":1190,"x_min":0,"x_max":0,"o":"m 56 198 b 5 136 22 198 5 177 l 5 62 b 56 0 5 21 22 0 l 149 0 b 200 62 183 0 200 21 l 200 136 b 149 198 200 177 183 198 z m 519 198 b 468 136 485 198 468 177 l 468 62 b 519 0 468 21 485 0 l 612 0 b 663 62 646 0 663 21 l 663 136 b 612 198 663 177 646 198 z m 983 198 b 931 136 948 198 931 177 l 931 62 b 983 0 931 21 948 0 l 1075 0 b 1126 62 1109 0 1126 21 l 1126 136 b 1075 198 1126 177 1109 198 z "},"‹":{"ha":317,"x_min":0,"x_max":0,"o":"m 172 540 b 123 521 147 540 131 534 b 34 347 64 420 34 362 b 77 243 34 336 48 301 b 159 157 106 186 134 157 l 235 157 b 283 195 267 157 283 170 b 267 257 283 214 278 235 b 218 350 256 279 240 311 b 266 435 239 386 255 414 b 283 491 277 458 283 477 b 229 540 283 524 265 540 l 172 540 z "},"›":{"ha":317,"x_min":0,"x_max":0,"o":"m 88 540 b 34 491 52 540 34 524 b 52 435 34 477 40 458 b 99 350 62 414 78 386 b 50 257 77 311 61 279 b 34 195 39 235 34 214 b 83 157 34 170 50 157 l 159 157 b 239 243 184 157 210 186 b 283 347 269 301 283 336 b 194 521 283 362 254 420 b 145 540 186 534 170 540 z "},"⁄":{"ha":173,"x_min":0,"x_max":0,"o":"m -52 0 b -11 19 -32 0 -18 6 b 172 448 -2 33 59 176 b 369 917 293 739 359 895 b 376 944 374 927 376 937 b 323 974 376 964 359 974 l 273 974 b 243 960 258 974 249 969 b -20 431 234 947 146 770 b -201 54 -136 193 -197 68 b -203 35 -203 47 -203 41 b -152 0 -203 12 -186 0 l -52 0 z "},"∕":{"ha":173,"x_min":0,"x_max":0,"o":"m -52 0 b -11 19 -32 0 -18 6 b 172 448 -2 33 59 176 b 369 917 293 739 359 895 b 376 944 374 927 376 937 b 323 974 376 964 359 974 l 273 974 b 243 960 258 974 249 969 b -20 431 234 947 146 770 b -201 54 -136 193 -197 68 b -203 35 -203 47 -203 41 b -152 0 -203 12 -186 0 l -52 0 z "},"₣":{"ha":599,"x_min":0,"x_max":0,"o":"m 331 149 b 359 149 344 149 353 149 b 411 211 394 149 411 170 l 411 268 b 365 338 411 315 395 338 b 322 337 350 338 336 338 b 315 461 320 375 317 416 b 459 448 400 452 448 448 b 484 467 475 448 484 454 l 484 659 b 462 678 484 672 476 678 b 307 665 453 678 401 673 l 299 827 l 519 838 b 565 871 549 839 565 850 l 565 930 b 531 959 565 947 553 957 b 169 974 479 965 359 970 b 117 922 134 974 117 957 l 109 333 l 94 333 b 34 279 54 333 34 315 l 34 216 b 105 154 34 175 58 155 l 104 49 b 158 0 104 16 122 0 l 283 0 b 334 46 317 0 334 16 b 331 149 334 62 333 97 z "},"€":{"ha":691,"x_min":0,"x_max":0,"o":"m -17 631 b -75 578 -56 631 -75 614 l -75 497 b -22 444 -75 461 -58 444 l 31 444 b 31 411 31 433 31 422 l -17 412 b -75 359 -56 412 -75 394 l -75 277 b -22 224 -75 241 -58 224 l 60 225 b 356 -27 112 57 211 -27 b 606 87 461 -27 544 11 b 665 217 646 139 665 182 b 612 279 665 258 648 279 l 467 279 b 418 244 437 279 421 268 b 367 155 412 184 395 155 b 291 217 340 155 315 176 b 285 229 289 220 287 224 l 300 229 b 375 299 350 229 375 252 l 375 337 b 300 407 375 384 350 407 l 245 408 l 245 448 l 300 448 b 375 519 350 448 375 472 l 375 557 b 300 627 375 604 350 627 l 268 627 b 271 640 269 631 270 635 b 334 719 288 692 309 719 b 386 662 367 719 384 700 b 459 586 389 611 414 586 l 611 586 b 663 632 646 586 663 602 b 641 768 663 690 655 734 b 356 979 579 909 484 979 b 177 901 285 979 225 953 b 47 631 113 827 69 737 z "},"™":{"ha":749,"x_min":0,"x_max":0,"o":"m 178 571 b 202 587 194 571 202 576 b 193 874 202 610 199 705 b 247 876 205 874 222 875 b 279 896 268 878 279 884 l 279 931 b 267 947 279 941 275 947 b 155 954 258 948 220 950 b 41 960 91 958 52 960 b 19 937 26 960 19 952 l 19 887 b 43 865 19 873 27 865 b 111 870 54 865 76 867 l 111 602 b 135 571 111 581 119 571 z m 693 571 b 703 585 700 571 703 576 b 704 838 704 684 704 768 b 693 893 704 857 701 875 b 614 949 679 930 652 949 b 528 880 580 949 551 926 b 447 949 513 926 486 949 b 387 911 422 949 402 936 l 386 936 b 362 960 385 952 376 960 l 327 960 b 309 949 315 960 309 957 l 300 591 b 323 571 300 578 308 571 l 368 571 b 392 591 384 571 392 578 l 388 800 b 423 841 399 827 411 841 b 456 772 441 841 453 818 b 463 589 459 734 461 673 l 463 585 b 472 571 463 576 466 571 l 525 571 b 533 589 530 571 533 577 b 534 759 533 641 534 698 b 578 800 547 787 562 800 b 632 699 614 800 632 766 l 632 589 b 646 571 632 577 637 571 z "},"−":{"ha":456,"x_min":0,"x_max":0,"o":"m 134 382 b 387 385 259 385 343 385 b 449 434 428 385 449 401 l 449 515 b 381 564 449 548 427 564 l 58 570 b 7 518 24 570 7 553 l 7 439 b 64 382 7 401 26 382 l 134 382 z "},"≈":{"ha":525,"x_min":0,"x_max":0,"o":"m 434 627 b 382 605 399 627 382 619 b 350 515 382 545 372 515 b 285 563 344 515 317 539 b 176 616 238 598 202 616 b 92 594 144 616 116 608 b 34 467 54 570 34 528 b 38 374 34 444 35 413 b 84 317 41 336 57 317 l 103 317 b 141 342 123 317 136 326 b 190 418 157 393 173 418 b 257 376 212 418 238 393 b 372 315 301 335 340 315 b 491 485 451 315 491 372 l 491 548 b 434 627 491 600 472 627 z m 434 315 b 382 293 399 315 382 307 b 350 203 382 233 372 203 b 285 251 344 203 317 227 b 176 304 238 286 202 304 b 92 282 144 304 116 296 b 34 155 54 258 34 216 b 38 62 34 132 35 101 b 84 5 41 24 57 5 l 103 5 b 141 30 123 5 136 14 b 190 106 157 81 173 106 b 257 64 212 106 238 81 b 372 3 301 23 340 3 b 491 173 451 3 491 60 l 491 236 b 434 315 491 288 472 315 z "},"≤":{"ha":444,"x_min":0,"x_max":0,"o":"m 380 821 b 65 631 360 821 255 758 b -14 549 13 597 -14 570 b 62 473 -14 532 12 507 b 201 384 98 448 144 418 b 381 281 306 315 366 281 b 431 362 414 281 431 308 l 431 395 b 400 465 431 427 421 451 b 260 549 372 486 325 514 l 380 625 b 431 689 414 646 431 668 l 431 769 b 380 821 431 804 414 821 z m 115 0 b 368 3 240 2 324 3 b 430 52 409 3 430 19 l 430 133 b 362 182 430 165 408 182 l 39 187 b -12 136 5 187 -12 170 l -12 57 b 45 0 -12 19 7 0 z "},"≥":{"ha":456,"x_min":0,"x_max":0,"o":"m 70 821 b 18 769 35 821 18 804 l 18 689 b 70 625 18 668 35 646 l 189 549 b 50 465 125 514 78 486 b 18 395 28 451 18 427 l 18 362 b 68 281 18 308 35 281 b 249 384 83 281 144 315 b 388 473 305 418 351 448 b 463 549 438 507 463 532 b 385 631 463 570 437 597 b 70 821 195 758 90 821 z m 147 0 b 399 3 272 2 356 3 b 462 52 441 3 462 19 l 462 133 b 394 182 462 165 439 182 l 71 187 b 20 136 37 187 20 170 l 20 57 b 77 0 20 19 39 0 z "},"¹":{"ha":343,"x_min":0,"x_max":0,"o":"m 169 974 b 127 950 149 974 136 966 b 54 794 79 859 54 807 b 105 747 54 762 71 747 l 125 747 l 130 410 b 181 362 130 378 147 362 l 227 362 b 280 410 262 362 280 378 l 289 931 b 237 974 289 960 272 974 l 169 974 z "},"²":{"ha":498,"x_min":0,"x_max":0,"o":"m 115 371 b 378 376 281 374 368 376 b 444 431 422 376 444 395 l 444 447 b 359 504 444 482 416 501 b 257 508 306 507 272 508 b 317 584 264 522 285 547 b 440 825 399 680 440 760 b 399 933 440 869 427 905 b 243 993 361 973 309 993 b 139 970 199 993 164 985 b 54 880 83 937 54 907 b 63 854 54 869 57 861 b 142 796 98 816 124 796 b 197 828 159 796 178 807 b 248 850 211 843 228 850 b 287 815 274 850 287 839 b 218 675 287 772 264 726 b 65 418 116 564 65 478 b 113 371 65 387 81 371 l 115 371 z "},"³":{"ha":514,"x_min":0,"x_max":0,"o":"m 246 360 b 396 416 298 360 349 379 b 460 551 439 452 460 496 b 368 709 460 622 429 674 b 418 836 401 739 418 782 b 393 916 418 865 410 892 b 227 993 355 967 300 993 b 132 975 188 993 156 987 b 54 899 80 949 54 924 b 77 859 54 888 62 874 b 157 808 110 825 136 808 b 195 824 176 808 189 813 b 252 878 216 860 235 878 b 271 825 264 878 271 860 b 213 749 271 785 252 760 b 137 698 162 737 137 720 l 137 677 b 169 635 137 653 148 639 b 235 621 195 631 217 627 b 312 547 286 608 312 583 b 254 477 312 498 283 477 b 215 496 235 477 222 483 b 155 541 201 526 180 541 b 101 517 142 541 125 532 b 61 465 75 498 61 481 b 83 424 61 454 68 441 b 246 360 119 381 173 360 z "},"⁴":{"ha":455,"x_min":0,"x_max":0,"o":"m 342 362 b 395 444 375 362 393 389 b 401 931 396 520 398 683 b 354 974 401 960 385 974 l 285 974 b 249 959 269 974 256 969 b 106 731 235 941 187 865 b 14 563 44 629 14 573 b 64 517 14 532 31 517 l 243 517 l 243 415 b 296 362 243 380 260 362 z m 175 632 l 243 755 l 243 632 z "}}}
